<?xml version="1.0" encoding="UTF-8"?>
<!-- Generator: Adobe Illustrator 17.0.0, SVG Export Plug-In . SVG Version: 6.00 Build 0)  -->
<!DOCTYPE svg PUBLIC "-//W3C//DTD SVG 1.1//EN" "http://www.w3.org/Graphics/SVG/1.1/DTD/svg11.dtd">
<svg version="1.1" id="Layer_1" xmlns="http://www.w3.org/2000/svg" xmlns:xlink="http://www.w3.org/1999/xlink" x="0px" y="0px" width="120.534px" height="20.602px" viewBox="0 0 120.534 20.602" enable-background="new 0 0 120.534 20.602" xml:space="preserve">
<path fill="#E8545B" d="M20.986,11.92c0,0.459-0.232,0.541-0.517,0.18L11.535,0.764c-0.285-0.361-0.892-0.657-1.351-0.657H8.743  c-0.459,0-0.833,0.376-0.833,0.836V19.67c0,0.46,0.375,0.836,0.833,0.836h2.168c0.459,0,0.833-0.377,0.833-0.836V7.589  c0-0.459,0.23-0.539,0.512-0.176l9.67,12.465c0.282,0.363,0.512,0.653,0.512,0.645s0.375-0.014,0.834-0.014h0.715  c0.459,0,0.833-0.377,0.833-0.836V0.915c0-0.459-0.375-0.836-0.833-0.836h-2.169c-0.459,0-0.834,0.376-0.834,0.836L20.986,11.92  C20.985,11.92,20.986,11.92,20.986,11.92z"/>
<path fill="#E8545B" d="M27.146,2.77c0,0.459,0.375,0.836,0.834,0.836h4.783c0.46,0,0.835,0.376,0.835,0.836v15.23  c0,0.46,0.375,0.836,0.833,0.836h2.168c0.459,0,0.834-0.377,0.834-0.836V4.442c0-0.459,0.375-0.836,0.834-0.836h4.783  c0.459,0,0.834-0.377,0.834-0.836V0.946c0-0.46-0.375-0.836-0.834-0.836H27.98c-0.459,0-0.834,0.376-0.834,0.836V2.77L27.146,2.77z"/>
<path fill="#E8545B" d="M60.541,20.509c0.459,0,0.833-0.377,0.833-0.836v-2.115c0-0.459-0.375-0.836-0.833-0.836H48.512  c-0.459,0-0.833,0.377-0.833,0.836v2.115c0,0.46,0.375,0.836,0.833,0.836H60.541z"/>
<path fill="#E8545B" d="M60.541,12.319c0.459,0,0.833-0.376,0.833-0.836V9.368c0-0.46-0.375-0.836-0.833-0.836H48.512  c-0.459,0-0.833,0.376-0.833,0.836v2.115c0,0.46,0.375,0.836,0.833,0.836H60.541z"/>
<path fill="#E8545B" d="M47.678,3.003c0,0.459,0.375,0.836,0.833,0.836H60.54c0.459,0,0.833-0.377,0.833-0.836V0.946  c0-0.46-0.375-0.836-0.833-0.836H48.512c-0.459,0-0.833,0.376-0.833,0.836L47.678,3.003L47.678,3.003z"/>
<path fill="#E8545B" d="M78.316,11.92c0,0.459-0.233,0.541-0.517,0.18L68.867,0.764c-0.285-0.361-0.892-0.657-1.351-0.657h-1.441  c-0.459,0-0.834,0.376-0.834,0.836V19.67c0,0.46,0.375,0.836,0.834,0.836h2.168c0.459,0,0.833-0.377,0.833-0.836V7.589  c0-0.459,0.23-0.539,0.512-0.176l9.67,12.465c0.282,0.363,0.512,0.653,0.512,0.645s0.375-0.014,0.833-0.014h0.715  c0.459,0,0.834-0.377,0.834-0.836V0.915c0-0.459-0.375-0.836-0.834-0.836H79.15c-0.459,0-0.834,0.376-0.834,0.836V11.92  L78.316,11.92z"/>
<path fill="#E8545B" d="M3.413,0.079H1.245c-0.459,0-0.834,0.376-0.834,0.836v18.772c0,0.459,0.375,0.836,0.834,0.836h2.168  c0.459,0,0.834-0.376,0.834-0.836V0.915C4.247,0.456,3.872,0.079,3.413,0.079z"/>
<path fill="#E8545B" d="M94.019,8.297c-2.317-0.277-4.302-0.746-4.302-2.433c0-1.438,1.297-2.573,3.999-2.573  c2.096,0,3.98,1.638,3.98,1.638c0.329,0.285,0.915,0.356,1.301,0.157l1.489-0.767c0.387-0.199,0.448-0.513,0.096-0.872  c0,0-2.695-3.297-6.977-3.335c-3.314-0.028-7.473,1.659-7.473,5.642c0,4.342,3.64,5.394,7.584,5.863  c2.565,0.277,4.468,1.023,4.468,2.849c0,2.102-2.176,2.77-4.464,2.793c-2.621,0.025-4.846-2.399-4.846-2.399  c-0.309-0.307-0.878-0.395-1.265-0.193l-1.628,0.846c-0.387,0.201-0.458,0.625-0.16,0.943c0,0,2.819,4.036,7.895,4.036  c4.302,0,7.922-1.713,8.079-6.025C101.959,10.013,98.045,8.796,94.019,8.297z"/>
<path fill="#E8545B" d="M116.671,0.108c-0.459,0-1.037,0.317-1.285,0.703l-4.502,7.015c-0.249,0.387-0.648,0.383-0.889-0.009  l-4.297-6.997c-0.241-0.391-0.812-0.712-1.271-0.712h-2.895c-0.459,0-0.833,0.039-0.833,0.087s0.207,0.401,0.461,0.784l6.893,10.41  c0.253,0.383,0.461,1.073,0.461,1.533v6.75c0,0.46,0.375,0.836,0.833,0.836h2.168c0.459,0,0.833-0.377,0.833-0.836v-6.75  c0-0.46,0.213-1.145,0.474-1.525l7.161-10.426c0.26-0.379,0.474-0.728,0.474-0.776s-0.375-0.087-0.834-0.087L116.671,0.108  L116.671,0.108z"/>
</svg>