<?xml version="1.0" encoding="utf-8"?>
<!-- Generator: Adobe Illustrator 18.0.0, SVG Export Plug-In . SVG Version: 6.00 Build 0)  -->
<!DOCTYPE svg PUBLIC "-//W3C//DTD SVG 1.1//EN" "http://www.w3.org/Graphics/SVG/1.1/DTD/svg11.dtd">
<svg version="1.1" id="圖層_1" xmlns="http://www.w3.org/2000/svg" xmlns:xlink="http://www.w3.org/1999/xlink" x="0px" y="0px"
	 viewBox="0 0 163 87" enable-background="new 0 0 163 87" xml:space="preserve">
<path fill="#FFFFFF" d="M162.2,80.2V4.7l0-3.8c-2.9,10.1-13.4,17.6-24.8,17.6h-25H25c-13.8,0-25,10.8-25,24v0c0,13.2,11.3,24,25,24
	h87.4h25c12.1,0,22.6,8.4,24.8,19.5C162.2,86,162.2,81.1,162.2,80.2z"/>
<path fill="#FFFFFF" d="M163.3,80.2V4.7l0-3.8c-2.9,10.1-13.4,17.6-24.8,17.6h-25H26.1c-13.8,0-25,10.8-25,24v0
	c0,13.2,11.3,24,25,24h87.4h25c12.1,0,22.6,8.4,24.8,19.5C163.3,86,163.3,81.1,163.3,80.2z"/>
</svg>
