<?xml version="1.0" encoding="UTF-8"?>
<!-- Generator: Adobe Illustrator 17.0.0, SVG Export Plug-In . SVG Version: 6.00 Build 0)  -->
<!DOCTYPE svg PUBLIC "-//W3C//DTD SVG 1.1//EN" "http://www.w3.org/Graphics/SVG/1.1/DTD/svg11.dtd">
<svg version="1.1" id="Layer_1" xmlns="http://www.w3.org/2000/svg" xmlns:xlink="http://www.w3.org/1999/xlink" x="0px" y="0px" width="143.333px" height="37.603px" viewBox="0 0 143.333 37.603" enable-background="new 0 0 143.333 37.603" xml:space="preserve">
<path fill="#010101" d="M13.432,16.768V1.493h3.798V18.3c0,0,7.477-9.53,9.307-12.338c2.128,0.681,3.106,0.681,3.106,0.681  s-3.021,5.531-9.743,11.828c6.084-1.021,11.19-1.745,11.19-1.745s0.978,1.745-0.511,2.128c-1.49,0.383-10.467,1.277-10.467,1.277  s-0.638,6.893,0.128,9.913s2.383,4.51,4.383,4.51s5.83,0,5.83,0s-0.638-2.935,0.723-3.19c1.361-0.255,2.935,2.595,2.978,4.51  c-5.148,0-11.658,0-11.658,0s-3.787,0.085-5.02-5.489c-0.704-5.275-0.511-8.978-0.511-8.978s-2.033-0.166-3.036,0.773  c0.194,3.238,0.162,11.982-11.561,14.378c0,0-0.486,0.162-0.534-0.421c-0.049-0.582,0.745-0.777,2.445-1.49  c1.7-0.713,6.131-5.268,6.607-10.837c-1.079-0.561-6.045,1.598-9.326,2.958c-1.49-1.144-2.029-2.375-1.101-2.785  c0.929-0.411,10.147-3.325,10.643-3.649c-0.194-0.561-8.052-9.391-8.96-9.996c1.316-1.663,2.656-2.44,3.26-2.375  C6.328,9.517,10.173,14.91,13.432,16.768z"/>
<g enable-background="new    ">
	<path fill="#010101" d="M44.087,8.784c2.093,0,3.139,0.396,3.139,1.19c0,0.216-0.053,0.391-0.161,0.526   c-0.108,0.136-0.312,0.286-0.613,0.453c-0.261,0.147-0.428,0.34-0.499,0.582c-0.07,0.24-0.105,0.726-0.105,1.458   c0,0.431,0.087,0.695,0.262,0.794c0.1,0.062,0.253,0.099,0.457,0.11c0.204,0.012,0.686,0.018,1.444,0.018   c0.691,0,1.12-0.034,1.288-0.101c0.168-0.068,0.251-0.236,0.251-0.508c0-0.812-0.04-1.379-0.121-1.7   c-0.081-0.32-0.239-0.538-0.473-0.655c-0.295-0.153-0.49-0.285-0.583-0.392c-0.095-0.108-0.142-0.251-0.142-0.429   c0-0.253,0.104-0.482,0.312-0.687c0.208-0.207,0.479-0.347,0.815-0.42c0.696-0.153,1.574-0.231,2.626-0.231   c1.234,0,2.145,0.103,2.733,0.309c0.587,0.207,0.88,0.528,0.88,0.965c0,0.369-0.208,0.647-0.624,0.832   c-0.261,0.11-0.433,0.217-0.513,0.318c-0.081,0.101-0.144,0.291-0.191,0.568c-0.027,0.153-0.061,0.837-0.101,2.049   s-0.06,2.177-0.06,2.89c0,1.25,0.049,2.044,0.151,2.382c0.053,0.185,0.114,0.308,0.181,0.369c0.068,0.061,0.278,0.185,0.634,0.369   c0.255,0.13,0.382,0.327,0.382,0.591c0,0.468-0.303,0.808-0.911,1.02c-0.607,0.212-1.592,0.317-2.954,0.317   c-1.194,0-2.076-0.107-2.647-0.322c-0.517-0.198-0.774-0.503-0.774-0.915c0-0.351,0.198-0.625,0.594-0.821   c0.195-0.099,0.327-0.198,0.398-0.295c0.07-0.097,0.139-0.279,0.207-0.544c0.121-0.517,0.181-1.151,0.181-1.902   c0-0.389-0.062-0.628-0.186-0.721c-0.125-0.092-0.448-0.138-0.971-0.138c-1.201,0-1.966,0.061-2.295,0.185   c-0.134,0.049-0.218,0.195-0.251,0.434c-0.04,0.295-0.061,0.659-0.061,1.089c0,0.702,0.108,1.206,0.322,1.514   c0.073,0.099,0.248,0.225,0.522,0.379c0.282,0.147,0.424,0.391,0.424,0.729c0,0.43-0.325,0.76-0.976,0.989   c-0.651,0.226-1.58,0.34-2.787,0.34c-1.101,0-2-0.104-2.698-0.313c-0.301-0.092-0.538-0.224-0.709-0.392   c-0.172-0.168-0.256-0.355-0.256-0.557c0-0.203,0.053-0.36,0.161-0.47c0.107-0.11,0.342-0.253,0.704-0.425   c0.188-0.086,0.321-0.196,0.398-0.333c0.078-0.135,0.136-0.363,0.177-0.683c0.1-0.721,0.151-1.662,0.151-2.825   c0-0.214-0.004-0.47-0.01-0.767c-0.027-1.477-0.04-2.321-0.04-2.53c0.006-0.529-0.042-0.878-0.146-1.049   c-0.104-0.169-0.377-0.355-0.82-0.559c-0.295-0.13-0.443-0.324-0.443-0.582c0-0.621,0.658-1.053,1.973-1.293   C42.498,8.854,43.281,8.784,44.087,8.784z"/>
	<path fill="#010101" d="M61.86,13.03v5.365c0,0.425,0.042,0.735,0.126,0.932c0.084,0.198,0.253,0.379,0.508,0.544   c0.208,0.135,0.347,0.251,0.417,0.346c0.07,0.096,0.107,0.217,0.107,0.365c0,0.795-1.097,1.19-3.291,1.19   c-1.181,0-2.117-0.086-2.808-0.257c-0.235-0.061-0.425-0.169-0.569-0.324c-0.144-0.153-0.217-0.329-0.217-0.528   c0-0.165,0.036-0.295,0.11-0.387c0.073-0.092,0.261-0.24,0.563-0.443c0.208-0.142,0.356-0.373,0.443-0.693   c0.087-0.32,0.131-0.797,0.131-1.431c0-0.203-0.016-0.583-0.045-1.14c-0.03-0.557-0.052-0.882-0.065-0.975   c-0.04-0.253-0.227-0.447-0.563-0.582c-0.416-0.166-0.624-0.412-0.624-0.738c0-0.389,0.272-0.677,0.815-0.868   c0.752-0.265,1.557-0.489,2.416-0.674c0.859-0.185,1.523-0.277,1.993-0.277C61.676,12.458,61.86,12.649,61.86,13.03z M59.868,8.986   c0.583,0,1.047,0.1,1.389,0.3c0.343,0.2,0.513,0.469,0.513,0.808c0,0.474-0.259,0.85-0.774,1.127   c-0.819,0.437-1.809,0.655-2.969,0.655c-0.489,0-0.878-0.086-1.167-0.259c-0.39-0.221-0.583-0.529-0.583-0.923   c0-0.53,0.413-0.945,1.238-1.247C58.351,9.141,59.137,8.986,59.868,8.986z"/>
	<path fill="#010101" d="M69.439,9.438l-0.091,2.89c-0.006,0.288-0.01,0.715-0.01,1.273c0,0.621,0.01,0.988,0.03,1.099   c0.047,0.253,0.188,0.379,0.424,0.379c0.201,0,0.509-0.12,0.925-0.356c0.416-0.236,0.625-0.413,0.625-0.53   c0-0.068-0.074-0.191-0.221-0.369c-0.108-0.129-0.161-0.252-0.161-0.369c0-0.665,0.893-0.998,2.678-0.998   c0.925,0,1.657,0.086,2.193,0.259c0.216,0.068,0.394,0.185,0.534,0.351c0.14,0.166,0.211,0.344,0.211,0.535   c0,0.277-0.144,0.47-0.433,0.582c-0.06,0.025-0.255,0.065-0.583,0.12c-0.295,0.049-0.677,0.217-1.146,0.503   c-0.469,0.286-0.704,0.494-0.704,0.624c0,0.087,0.283,0.491,0.85,1.214c0.567,0.724,1.094,1.353,1.584,1.888   c0.316,0.351,0.563,0.598,0.741,0.738c0.178,0.142,0.425,0.292,0.739,0.453c0.483,0.24,0.725,0.515,0.725,0.821   c0,0.325-0.152,0.582-0.459,0.765c-0.305,0.185-0.722,0.278-1.251,0.278h-3.262c-0.409-0.006-0.728-0.146-0.955-0.416l-1.671-1.966   c-0.443-0.517-0.713-0.825-0.811-0.924s-0.179-0.147-0.247-0.147c-0.081,0-0.135,0.055-0.161,0.166   c-0.027,0.11-0.04,0.321-0.04,0.628c0,0.277,0.034,0.478,0.1,0.604c0.068,0.126,0.221,0.278,0.463,0.457   c0.174,0.129,0.262,0.32,0.262,0.573c0,0.431-0.248,0.741-0.745,0.932c-0.496,0.191-1.315,0.286-2.456,0.286   c-1.341,0-2.214-0.053-2.616-0.157c-0.229-0.061-0.424-0.187-0.583-0.374c-0.161-0.188-0.242-0.386-0.242-0.595   c0-0.234,0.142-0.437,0.422-0.609c0.242-0.142,0.396-0.249,0.464-0.324c0.068-0.074,0.121-0.191,0.161-0.351   c0.153-0.862,0.227-2.191,0.221-3.988v-2.022c0-0.689-0.039-1.129-0.116-1.32c-0.077-0.191-0.266-0.305-0.568-0.342   c-0.551-0.068-0.825-0.277-0.825-0.628c0-0.234,0.121-0.444,0.361-0.633c0.242-0.188,0.638-0.374,1.188-0.559   c1.758-0.598,3.06-0.895,3.905-0.895C69.267,8.986,69.452,9.137,69.439,9.438z"/>
	<path fill="#010101" d="M84.585,12.384c1.168,0,2.157,0.272,2.969,0.813c0.429,0.288,0.729,0.62,0.902,0.991   c0.172,0.373,0.256,0.885,0.256,1.537l-0.019,1.376c0,0.954,0.073,1.574,0.221,1.857c0.074,0.135,0.144,0.221,0.211,0.259   c0.068,0.036,0.208,0.07,0.424,0.101c0.214,0.031,0.322,0.16,0.322,0.389c0,0.295-0.129,0.603-0.387,0.923   c-0.257,0.321-0.593,0.589-1.001,0.804c-0.503,0.27-1.029,0.405-1.579,0.405c-0.706,0-1.262-0.222-1.671-0.665   c-0.142-0.16-0.272-0.24-0.392-0.24c-0.134,0-0.312,0.078-0.533,0.233c-0.672,0.448-1.433,0.673-2.286,0.673   c-0.878,0-1.589-0.173-2.134-0.517c-0.356-0.227-0.637-0.525-0.845-0.891c-0.208-0.366-0.312-0.75-0.312-1.15   c0-0.641,0.281-1.206,0.845-1.698c0.878-0.776,2.195-1.167,3.945-1.173c0.389,0,0.635-0.035,0.735-0.107   c0.101-0.071,0.151-0.235,0.151-0.494c0-0.652-0.074-1.125-0.221-1.418c-0.148-0.292-0.39-0.439-0.725-0.439   c-0.201,0-0.382,0.056-0.538,0.166c-0.159,0.11-0.355,0.314-0.59,0.609c-0.596,0.782-1.22,1.173-1.871,1.173   c-0.329,0-0.596-0.09-0.804-0.268c-0.208-0.179-0.312-0.412-0.312-0.702c0-0.295,0.129-0.591,0.387-0.886   c0.257-0.295,0.608-0.554,1.051-0.776C81.995,12.679,83.263,12.384,84.585,12.384z M83.91,17.73c-0.295,0-0.552,0.11-0.771,0.333   c-0.218,0.221-0.326,0.486-0.326,0.794c0,0.295,0.077,0.534,0.231,0.716c0.153,0.182,0.359,0.272,0.613,0.272   c0.537,0,0.806-0.415,0.806-1.246c0-0.338-0.04-0.567-0.117-0.683C84.272,17.798,84.126,17.737,83.91,17.73z"/>
	<path fill="#010101" d="M96.621,8.728c0.691,0,1.597,0.157,2.717,0.47c0.134,0.036,0.242,0.056,0.322,0.056   c0.068,0,0.269-0.056,0.604-0.166c0.108-0.036,0.222-0.055,0.343-0.055c0.448,0,0.924,0.326,1.424,0.978   c0.499,0.652,0.75,1.273,0.75,1.865c0,0.346-0.113,0.635-0.338,0.873s-0.499,0.355-0.82,0.355c-0.268,0-0.486-0.049-0.654-0.148   c-0.168-0.099-0.537-0.39-1.107-0.877c-0.806-0.689-1.598-1.034-2.375-1.034c-0.376,0-0.677,0.083-0.902,0.249   c-0.223,0.166-0.337,0.385-0.337,0.656c0,0.535,0.513,0.938,1.54,1.21c1.389,0.376,2.278,0.65,2.668,0.821   c1.71,0.763,2.566,1.887,2.566,3.369c0,1.311-0.583,2.383-1.752,3.213c-1.195,0.85-2.755,1.273-4.679,1.273   c-0.859,0-1.765-0.094-2.717-0.282c-0.952-0.188-1.641-0.407-2.063-0.659c-0.322-0.198-0.612-0.626-0.871-1.288   c-0.257-0.661-0.387-1.307-0.387-1.935c0-0.301,0.068-0.529,0.201-0.683c0.168-0.198,0.379-0.295,0.635-0.295   c0.255,0,0.499,0.12,0.733,0.36c0.142,0.136,0.474,0.569,0.997,1.302c0.248,0.344,0.642,0.632,1.182,0.859s1.099,0.34,1.676,0.34   c0.498,0,0.899-0.084,1.207-0.253c0.309-0.169,0.463-0.387,0.463-0.651c0-0.247-0.121-0.459-0.361-0.637   c-0.242-0.179-0.635-0.344-1.177-0.499c-0.96-0.277-1.691-0.531-2.195-0.761c-0.503-0.231-0.973-0.522-1.409-0.872   c-1.062-0.862-1.59-1.841-1.59-2.937c0-0.541,0.138-1.069,0.413-1.583c0.275-0.515,0.665-0.959,1.168-1.335   C93.622,9.162,94.998,8.728,96.621,8.728z"/>
	<path fill="#010101" d="M109.414,9.438l-0.131,3.868c-0.013,0.461,0.142,0.693,0.463,0.693c0.161,0,0.32-0.101,0.473-0.305   c0.651-0.868,1.519-1.302,2.607-1.302c1.068,0,1.915,0.299,2.548,0.895c0.282,0.265,0.481,0.58,0.598,0.942   c0.117,0.363,0.182,0.884,0.196,1.561l0.091,3.333c0.005,0.288,0.048,0.502,0.125,0.637c0.077,0.135,0.256,0.305,0.538,0.508   c0.194,0.142,0.291,0.311,0.291,0.507c0,0.665-1.094,0.997-3.28,0.997c-1.945,0-2.92-0.311-2.92-0.932   c0-0.105,0.017-0.185,0.051-0.24c0.032-0.055,0.151-0.203,0.352-0.443c0.282-0.338,0.424-1.185,0.424-2.539   c0-0.819-0.084-1.415-0.252-1.791c-0.221-0.511-0.617-0.767-1.188-0.767c-0.409,0-0.711,0.135-0.906,0.405   c-0.142,0.198-0.211,0.567-0.211,1.108v1.783c0.047,0.787,0.087,1.234,0.121,1.338c0.032,0.105,0.188,0.299,0.463,0.582   c0.127,0.129,0.191,0.279,0.191,0.452c0,0.695-0.985,1.042-2.957,1.042c-2.309,0-3.462-0.359-3.462-1.08   c0-0.166,0.035-0.294,0.109-0.383s0.255-0.226,0.544-0.411c0.255-0.166,0.431-0.613,0.529-1.344   c0.097-0.73,0.146-1.937,0.146-3.624c0-1.323-0.04-2.24-0.12-2.751c-0.027-0.191-0.075-0.33-0.147-0.42   c-0.07-0.09-0.203-0.181-0.398-0.272c-0.416-0.198-0.624-0.425-0.624-0.683c0-0.308,0.157-0.557,0.473-0.747   c0.314-0.191,0.919-0.398,1.811-0.619c1.207-0.308,2.17-0.461,2.889-0.461C109.239,8.977,109.427,9.13,109.414,9.438z"/>
	<path fill="#010101" d="M124.038,12.384c1.228,0,2.304,0.292,3.23,0.877c0.665,0.418,1.198,0.963,1.601,1.635   c0.416,0.702,0.624,1.435,0.624,2.197c0,1.336-0.668,2.472-2.002,3.407c-1.275,0.891-2.734,1.338-4.378,1.338   c-1.603,0-2.903-0.418-3.896-1.257c-0.967-0.812-1.45-1.871-1.45-3.176c0-1.453,0.591-2.64,1.771-3.564   C120.772,12.87,122.273,12.384,124.038,12.384z M123.231,14.518c-0.295,0-0.531,0.1-0.709,0.3c-0.178,0.2-0.266,0.466-0.266,0.799   c0,0.369,0.075,0.872,0.226,1.51c0.151,0.637,0.33,1.202,0.538,1.694c0.208,0.505,0.547,0.758,1.017,0.758   c0.596,0,0.895-0.347,0.895-1.043c0-0.517-0.075-1.105-0.226-1.763c-0.151-0.659-0.335-1.194-0.548-1.607   C123.936,14.745,123.627,14.53,123.231,14.518z"/>
	<path fill="#010101" d="M135.149,12.439c0.411,0,0.665,0.032,0.765,0.097c0.101,0.065,0.151,0.226,0.151,0.485   c0,0.227,0.081,0.342,0.242,0.342c0.068,0,0.292-0.117,0.673-0.351c0.288-0.178,0.656-0.327,1.102-0.448   c0.446-0.12,0.85-0.181,1.214-0.181c0.851,0,1.614,0.272,2.284,0.813c0.509,0.412,0.906,0.932,1.188,1.561   c0.295,0.659,0.443,1.351,0.443,2.078c0,1.552-0.57,2.829-1.711,3.831c-0.878,0.782-1.879,1.173-2.999,1.173   c-0.569,0-1.156-0.123-1.761-0.37c-0.121-0.048-0.218-0.073-0.292-0.073c-0.203,0-0.301,0.183-0.301,0.554   c0,0.486,0.178,0.836,0.533,1.053c0.329,0.203,0.525,0.339,0.59,0.411c0.062,0.071,0.095,0.19,0.095,0.356   c0,0.369-0.225,0.654-0.676,0.854c-0.448,0.201-1.082,0.3-1.901,0.3c-1.457,0-2.731-0.268-3.825-0.803   c-0.557-0.27-0.834-0.607-0.834-1.007c0-0.183,0.042-0.325,0.125-0.42c0.084-0.095,0.247-0.195,0.489-0.299   c0.35-0.148,0.563-0.416,0.639-0.803c0.077-0.389,0.135-1.502,0.175-3.342c-0.047-1.514-0.107-2.364-0.181-2.548   c-0.027-0.061-0.065-0.101-0.116-0.12c-0.051-0.018-0.217-0.052-0.499-0.101c-0.214-0.036-0.389-0.127-0.522-0.272   c-0.135-0.144-0.203-0.32-0.203-0.522c0-0.247,0.094-0.463,0.282-0.651c0.188-0.188,0.492-0.372,0.916-0.55   C132.876,12.8,134.184,12.452,135.149,12.439z M136.146,15.93l-0.151,2.539c-0.006,0.105-0.01,0.207-0.01,0.305   c0,0.191,0.09,0.344,0.272,0.463c0.181,0.117,0.421,0.175,0.724,0.175c0.928,0,1.39-0.699,1.39-2.096   c0-0.906-0.195-1.542-0.583-1.911c-0.242-0.227-0.531-0.34-0.865-0.34C136.443,15.062,136.186,15.351,136.146,15.93z"/>
</g>
<g>
	<path d="M43.934,29.594h-2.967c-0.003,0.047-0.004,0.083-0.004,0.107c0,0.292,0.083,0.526,0.25,0.705   c0.166,0.179,0.369,0.268,0.608,0.268c0.393,0,0.699-0.203,0.919-0.609l1.06,0.177c-0.206,0.426-0.481,0.745-0.827,0.958   c-0.345,0.214-0.731,0.32-1.16,0.32c-0.588,0-1.066-0.187-1.434-0.559c-0.369-0.373-0.552-0.865-0.552-1.478   c0-0.6,0.166-1.133,0.499-1.6c0.453-0.632,1.101-0.948,1.941-0.948c0.536,0,0.961,0.166,1.277,0.497   c0.316,0.331,0.474,0.795,0.474,1.391C44.016,29.109,43.989,29.366,43.934,29.594z M42.937,28.873   c0.002-0.053,0.004-0.092,0.004-0.12c0-0.323-0.073-0.567-0.218-0.729c-0.146-0.162-0.341-0.243-0.585-0.243   s-0.464,0.093-0.657,0.276c-0.194,0.185-0.325,0.456-0.394,0.816H42.937z"/>
	<path d="M45.606,28.667h2.296l-0.239,1.142h-2.296L45.606,28.667z"/>
	<path d="M52.171,29.767l1.15,0.186c-0.189,0.511-0.47,0.899-0.841,1.166s-0.801,0.4-1.29,0.4c-0.558,0-1-0.167-1.327-0.499   c-0.327-0.333-0.491-0.79-0.491-1.373c0-0.475,0.099-0.924,0.297-1.348c0.198-0.423,0.496-0.756,0.895-0.999   s0.835-0.365,1.311-0.365c0.517,0,0.929,0.135,1.236,0.404c0.308,0.27,0.481,0.624,0.52,1.063l-1.125,0.119   c-0.028-0.244-0.103-0.425-0.225-0.54c-0.123-0.115-0.283-0.173-0.48-0.173c-0.228,0-0.441,0.085-0.639,0.256   c-0.198,0.17-0.35,0.425-0.456,0.765c-0.106,0.339-0.159,0.657-0.159,0.954c0,0.258,0.063,0.457,0.189,0.598   c0.126,0.14,0.285,0.21,0.474,0.21s0.373-0.068,0.548-0.206S52.072,30.042,52.171,29.767z"/>
	<path d="M55.084,29.598c0-0.811,0.229-1.457,0.686-1.939s1.059-0.724,1.803-0.724c0.646,0,1.15,0.178,1.513,0.534   c0.363,0.355,0.544,0.834,0.544,1.437c0,0.709-0.227,1.321-0.68,1.838c-0.454,0.517-1.061,0.775-1.822,0.775   c-0.413,0-0.778-0.083-1.097-0.248s-0.556-0.398-0.713-0.7C55.163,30.268,55.084,29.944,55.084,29.598z M58.456,28.753   c0-0.28-0.082-0.505-0.246-0.674s-0.374-0.253-0.632-0.253c-0.256,0-0.482,0.079-0.68,0.237c-0.198,0.157-0.352,0.387-0.462,0.688   s-0.165,0.578-0.165,0.831c0,0.313,0.085,0.562,0.255,0.746c0.17,0.184,0.385,0.276,0.643,0.276c0.324,0,0.596-0.14,0.816-0.417   C58.299,29.795,58.456,29.316,58.456,28.753z"/>
	<path d="M61.958,27.039h1.113L62.96,27.57c0.434-0.423,0.889-0.635,1.367-0.635c0.33,0,0.584,0.069,0.764,0.206   c0.178,0.138,0.291,0.327,0.342,0.569c0.15-0.22,0.367-0.404,0.65-0.553s0.578-0.223,0.883-0.223c0.348,0,0.621,0.094,0.816,0.28   c0.195,0.188,0.291,0.435,0.291,0.742c0,0.151-0.037,0.412-0.115,0.783l-0.561,2.675h-1.182l0.561-2.675   c0.068-0.335,0.102-0.525,0.102-0.569c0-0.12-0.035-0.216-0.107-0.286c-0.074-0.07-0.184-0.105-0.328-0.105   c-0.295,0-0.557,0.155-0.787,0.466c-0.168,0.223-0.311,0.617-0.43,1.184l-0.416,1.986h-1.184l0.553-2.646   c0.064-0.305,0.096-0.503,0.096-0.593c0-0.116-0.039-0.211-0.117-0.285s-0.188-0.111-0.324-0.111c-0.129,0-0.262,0.039-0.4,0.116   c-0.137,0.076-0.258,0.183-0.359,0.317c-0.104,0.134-0.193,0.308-0.266,0.519c-0.033,0.1-0.088,0.323-0.162,0.672l-0.42,2.012   h-1.183L61.958,27.039z"/>
	<path d="M70.476,27.039h1.113l-0.111,0.531c0.434-0.423,0.89-0.635,1.368-0.635c0.33,0,0.584,0.069,0.763,0.206   c0.179,0.138,0.292,0.327,0.342,0.569c0.151-0.22,0.368-0.404,0.651-0.553s0.577-0.223,0.882-0.223c0.349,0,0.621,0.094,0.816,0.28   c0.195,0.188,0.292,0.435,0.292,0.742c0,0.151-0.038,0.412-0.115,0.783l-0.561,2.675h-1.183l0.561-2.675   c0.068-0.335,0.103-0.525,0.103-0.569c0-0.12-0.036-0.216-0.108-0.286c-0.073-0.07-0.183-0.105-0.328-0.105   c-0.294,0-0.557,0.155-0.787,0.466c-0.168,0.223-0.311,0.617-0.429,1.184l-0.416,1.986h-1.184l0.553-2.646   c0.063-0.305,0.095-0.503,0.095-0.593c0-0.116-0.039-0.211-0.117-0.285s-0.187-0.111-0.324-0.111c-0.129,0-0.262,0.039-0.399,0.116   c-0.138,0.076-0.258,0.183-0.36,0.317c-0.104,0.134-0.192,0.308-0.266,0.519c-0.033,0.1-0.087,0.323-0.161,0.672l-0.421,2.012   h-1.183L70.476,27.039z"/>
	<path d="M82.378,29.594h-2.968c-0.002,0.047-0.004,0.083-0.004,0.107c0,0.292,0.083,0.526,0.249,0.705   c0.167,0.179,0.369,0.268,0.608,0.268c0.393,0,0.699-0.203,0.919-0.609l1.06,0.177c-0.206,0.426-0.481,0.745-0.826,0.958   c-0.345,0.214-0.731,0.32-1.16,0.32c-0.589,0-1.066-0.187-1.435-0.559c-0.368-0.373-0.553-0.865-0.553-1.478   c0-0.6,0.166-1.133,0.499-1.6c0.453-0.632,1.101-0.948,1.941-0.948c0.536,0,0.962,0.166,1.277,0.497   c0.316,0.331,0.475,0.795,0.475,1.391C82.461,29.109,82.433,29.366,82.378,29.594z M81.381,28.873   c0.003-0.053,0.004-0.092,0.004-0.12c0-0.323-0.073-0.567-0.219-0.729s-0.341-0.243-0.585-0.243s-0.464,0.093-0.657,0.276   c-0.194,0.185-0.325,0.456-0.394,0.816H81.381z"/>
	<path d="M84.674,27.039h1.104l-0.178,0.849c0.412-0.635,0.858-0.952,1.34-0.952c0.17,0,0.353,0.043,0.548,0.128l-0.453,0.969   c-0.107-0.038-0.222-0.058-0.342-0.058c-0.204,0-0.41,0.077-0.621,0.23c-0.21,0.154-0.374,0.359-0.492,0.616   s-0.235,0.664-0.351,1.223l-0.288,1.372h-1.183L84.674,27.039z"/>
	<path d="M91.09,29.767l1.149,0.186c-0.189,0.511-0.47,0.899-0.841,1.166c-0.37,0.267-0.801,0.4-1.29,0.4   c-0.558,0-1-0.167-1.327-0.499c-0.326-0.333-0.49-0.79-0.49-1.373c0-0.475,0.099-0.924,0.297-1.348   c0.198-0.423,0.496-0.756,0.895-0.999s0.835-0.365,1.311-0.365c0.517,0,0.929,0.135,1.236,0.404s0.481,0.624,0.52,1.063   l-1.125,0.119c-0.027-0.244-0.103-0.425-0.225-0.54s-0.282-0.173-0.48-0.173c-0.229,0-0.441,0.085-0.639,0.256   c-0.198,0.17-0.35,0.425-0.455,0.765c-0.106,0.339-0.159,0.657-0.159,0.954c0,0.258,0.063,0.457,0.189,0.598   c0.127,0.14,0.284,0.21,0.475,0.21c0.189,0,0.372-0.068,0.548-0.206S90.992,30.042,91.09,29.767z"/>
	<path d="M98.092,29.594h-2.968c-0.002,0.047-0.004,0.083-0.004,0.107c0,0.292,0.083,0.526,0.249,0.705   c0.167,0.179,0.369,0.268,0.608,0.268c0.393,0,0.699-0.203,0.919-0.609l1.06,0.177c-0.206,0.426-0.481,0.745-0.826,0.958   c-0.345,0.214-0.731,0.32-1.16,0.32c-0.589,0-1.066-0.187-1.435-0.559c-0.368-0.373-0.553-0.865-0.553-1.478   c0-0.6,0.166-1.133,0.499-1.6c0.453-0.632,1.101-0.948,1.941-0.948c0.536,0,0.962,0.166,1.277,0.497   c0.316,0.331,0.475,0.795,0.475,1.391C98.175,29.109,98.147,29.366,98.092,29.594z M97.095,28.873   c0.003-0.053,0.004-0.092,0.004-0.12c0-0.323-0.073-0.567-0.219-0.729s-0.341-0.243-0.585-0.243s-0.464,0.093-0.657,0.276   c-0.194,0.185-0.325,0.456-0.394,0.816H97.095z"/>
	<path d="M102.744,30.191l1.146-0.181c0.102,0.241,0.229,0.413,0.38,0.513c0.15,0.101,0.356,0.15,0.618,0.15   c0.269,0,0.484-0.061,0.646-0.181c0.113-0.083,0.169-0.184,0.169-0.302c0-0.079-0.028-0.15-0.086-0.214   c-0.061-0.061-0.225-0.135-0.491-0.223c-0.714-0.236-1.156-0.423-1.327-0.561c-0.267-0.214-0.399-0.494-0.399-0.841   c0-0.346,0.129-0.645,0.388-0.895c0.359-0.349,0.895-0.523,1.604-0.523c0.563,0,0.989,0.104,1.277,0.31s0.471,0.484,0.548,0.837   l-1.092,0.189c-0.058-0.159-0.151-0.279-0.28-0.359c-0.176-0.106-0.388-0.16-0.635-0.16s-0.426,0.041-0.534,0.123   c-0.108,0.083-0.162,0.178-0.162,0.285c0,0.109,0.055,0.2,0.164,0.271c0.069,0.044,0.29,0.121,0.664,0.231   c0.577,0.167,0.963,0.332,1.158,0.494c0.274,0.229,0.412,0.503,0.412,0.824c0,0.415-0.175,0.775-0.523,1.08   s-0.841,0.458-1.476,0.458c-0.632,0-1.12-0.116-1.465-0.349C103.101,30.938,102.868,30.612,102.744,30.191z"/>
	<path d="M108.776,29.598c0-0.811,0.229-1.457,0.687-1.939c0.458-0.482,1.059-0.724,1.804-0.724c0.646,0,1.149,0.178,1.513,0.534   c0.362,0.355,0.544,0.834,0.544,1.437c0,0.709-0.227,1.321-0.681,1.838c-0.453,0.517-1.061,0.775-1.821,0.775   c-0.412,0-0.778-0.083-1.097-0.248s-0.557-0.398-0.713-0.7C108.855,30.268,108.776,29.944,108.776,29.598z M112.148,28.753   c0-0.28-0.082-0.505-0.245-0.674c-0.164-0.169-0.375-0.253-0.633-0.253c-0.256,0-0.482,0.079-0.681,0.237   c-0.197,0.157-0.352,0.387-0.461,0.688c-0.11,0.301-0.165,0.578-0.165,0.831c0,0.313,0.085,0.562,0.256,0.746   c0.17,0.184,0.384,0.276,0.643,0.276c0.324,0,0.597-0.14,0.816-0.417C111.991,29.795,112.148,29.316,112.148,28.753z"/>
	<path d="M114.765,31.416l1.265-6.042h1.179l-1.261,6.042H114.765z"/>
	<path d="M119.038,27.039h1.183l-0.54,2.592c-0.065,0.311-0.099,0.505-0.099,0.582c0,0.126,0.047,0.234,0.14,0.325   c0.094,0.091,0.213,0.136,0.358,0.136c0.104,0,0.208-0.02,0.31-0.06s0.206-0.101,0.313-0.182c0.106-0.081,0.203-0.174,0.288-0.278   c0.085-0.104,0.165-0.241,0.239-0.412c0.052-0.126,0.108-0.332,0.169-0.618l0.437-2.085h1.184l-0.915,4.377H121l0.123-0.594   c-0.483,0.465-1.01,0.697-1.578,0.697c-0.36,0-0.644-0.104-0.85-0.31s-0.309-0.482-0.309-0.828c0-0.151,0.047-0.452,0.14-0.903   L119.038,27.039z"/>
	<path d="M124.597,27.917l0.182-0.878h0.577l0.144-0.701l1.356-0.815l-0.317,1.517h0.721l-0.181,0.878h-0.726l-0.384,1.834   c-0.068,0.332-0.103,0.522-0.103,0.568c0,0.091,0.028,0.162,0.087,0.213c0.058,0.051,0.162,0.076,0.313,0.076   c0.053,0,0.183-0.01,0.392-0.029l-0.186,0.878c-0.203,0.041-0.412,0.063-0.626,0.063c-0.418,0-0.722-0.081-0.911-0.241   c-0.189-0.161-0.284-0.385-0.284-0.67c0-0.135,0.051-0.445,0.152-0.932l0.367-1.76H124.597z"/>
	<path d="M129.039,27.039h1.183l-0.915,4.377h-1.183L129.039,27.039z M129.385,25.374h1.183l-0.223,1.071h-1.183L129.385,25.374z"/>
	<path d="M131.655,29.598c0-0.811,0.229-1.457,0.687-1.939c0.458-0.482,1.059-0.724,1.804-0.724c0.646,0,1.149,0.178,1.513,0.534   c0.362,0.355,0.544,0.834,0.544,1.437c0,0.709-0.227,1.321-0.681,1.838c-0.453,0.517-1.061,0.775-1.821,0.775   c-0.412,0-0.778-0.083-1.097-0.248s-0.557-0.398-0.713-0.7C131.734,30.268,131.655,29.944,131.655,29.598z M135.027,28.753   c0-0.28-0.082-0.505-0.245-0.674c-0.164-0.169-0.375-0.253-0.633-0.253c-0.256,0-0.482,0.079-0.681,0.237   c-0.197,0.157-0.352,0.387-0.461,0.688c-0.11,0.301-0.165,0.578-0.165,0.831c0,0.313,0.085,0.562,0.256,0.746   c0.17,0.184,0.384,0.276,0.643,0.276c0.324,0,0.597-0.14,0.816-0.417C134.87,29.795,135.027,29.316,135.027,28.753z"/>
	<path d="M138.583,27.039h1.121l-0.115,0.568c0.28-0.241,0.542-0.414,0.785-0.518c0.243-0.103,0.499-0.154,0.769-0.154   c0.36,0,0.644,0.104,0.852,0.31c0.207,0.206,0.311,0.479,0.311,0.82c0,0.153-0.045,0.444-0.136,0.873l-0.516,2.478h-1.183   l0.52-2.485c0.077-0.371,0.115-0.592,0.115-0.664c0-0.15-0.045-0.27-0.134-0.356c-0.09-0.086-0.214-0.13-0.373-0.13   c-0.173,0-0.365,0.073-0.577,0.219s-0.378,0.338-0.499,0.577c-0.088,0.17-0.187,0.518-0.297,1.043l-0.375,1.797h-1.183   L138.583,27.039z"/>
</g>
</svg>