<?xml version="1.0" encoding="UTF-8"?>
<!-- Generator: Adobe Illustrator 17.0.0, SVG Export Plug-In . SVG Version: 6.00 Build 0)  -->
<!DOCTYPE svg PUBLIC "-//W3C//DTD SVG 1.0//EN" "http://www.w3.org/TR/2001/REC-SVG-20010904/DTD/svg10.dtd">
<svg version="1.0" id="Layer_1" xmlns="http://www.w3.org/2000/svg" xmlns:xlink="http://www.w3.org/1999/xlink" x="0px" y="0px" width="88px" height="37.603px" viewBox="0 0 88 37.603" enable-background="new 0 0 88 37.603" xml:space="preserve">
<g>
	<g enable-background="new    ">
		<path fill="#010101" d="M3.623,12.862h0.058c0.347-0.491,0.838-1.098,1.243-1.589l4.104-4.826h3.063l-5.404,5.751l6.156,8.236    H9.75l-4.827-6.705l-1.3,1.445v5.26H1.109v-20.52h2.514V12.862z"/>
		<path fill="#010101" d="M26.48,16.62c0,1.444,0.029,2.716,0.115,3.814h-2.254l-0.145-2.283h-0.058    c-0.665,1.127-2.138,2.602-4.624,2.602c-2.196,0-4.826-1.214-4.826-6.127V6.447h2.543v7.745c0,2.658,0.809,4.45,3.121,4.45    c1.705,0,2.89-1.185,3.353-2.312c0.145-0.376,0.231-0.839,0.231-1.301V6.447h2.543V16.62z"/>
		<path fill="#010101" d="M30.695,10.232c0-1.444-0.029-2.63-0.116-3.785h2.254l0.145,2.312h0.058    c0.693-1.329,2.312-2.63,4.624-2.63c1.936,0,4.942,1.156,4.942,5.953v8.353h-2.543v-8.063c0-2.254-0.838-4.133-3.237-4.133    c-1.676,0-2.977,1.186-3.41,2.602c-0.115,0.317-0.173,0.751-0.173,1.185v8.41h-2.543V10.232z"/>
		<path fill="#010101" d="M48.147,13.903c0.058,3.438,2.254,4.855,4.797,4.855c1.821,0,2.919-0.318,3.873-0.723l0.434,1.82    c-0.896,0.404-2.428,0.867-4.653,0.867c-4.306,0-6.878-2.832-6.878-7.052s2.485-7.543,6.561-7.543    c4.565,0,5.779,4.018,5.779,6.589c0,0.521-0.058,0.925-0.086,1.186H48.147z M55.604,12.082c0.028-1.618-0.665-4.132-3.526-4.132    c-2.571,0-3.699,2.369-3.901,4.132H55.604z"/>
		<path fill="#010101" d="M61.206,10.232c0-1.444-0.029-2.63-0.116-3.785h2.255l0.145,2.312h0.058    c0.693-1.329,2.312-2.63,4.624-2.63c1.937,0,4.941,1.156,4.941,5.953v8.353h-2.543v-8.063c0-2.254-0.838-4.133-3.236-4.133    c-1.677,0-2.977,1.186-3.41,2.602c-0.116,0.317-0.174,0.751-0.174,1.185v8.41h-2.543V10.232z"/>
		<path fill="#010101" d="M84.986,20.434l-0.202-1.763h-0.086c-0.781,1.098-2.283,2.081-4.277,2.081    c-2.833,0-4.277-1.994-4.277-4.018c0-3.381,3.006-5.23,8.41-5.202v-0.289c0-1.156-0.318-3.236-3.18-3.236    c-1.3,0-2.658,0.404-3.642,1.04l-0.577-1.676c1.155-0.752,2.832-1.243,4.595-1.243c4.277,0,5.317,2.919,5.317,5.723v5.23    c0,1.214,0.058,2.398,0.231,3.353H84.986z M84.611,13.296c-2.774-0.058-5.925,0.434-5.925,3.15c0,1.647,1.099,2.428,2.398,2.428    c1.821,0,2.977-1.156,3.382-2.341c0.087-0.261,0.145-0.549,0.145-0.81V13.296z"/>
	</g>
</g>
<g>
	<polygon fill="#010101" points="11.229,37.48 13.345,26.22 0.456,26.22 0.456,24.437 15.494,24.437 13.748,33.728 28.121,24.437    87.802,24.437 87.802,26.22 28.646,26.22  "/>
</g>
</svg>