<?xml version="1.0" encoding="UTF-8"?>
<!-- Generator: Adobe Illustrator 17.0.0, SVG Export Plug-In . SVG Version: 6.00 Build 0)  -->
<!DOCTYPE svg PUBLIC "-//W3C//DTD SVG 1.1//EN" "http://www.w3.org/Graphics/SVG/1.1/DTD/svg11.dtd">
<svg version="1.1" id="Layer_1" xmlns="http://www.w3.org/2000/svg" xmlns:xlink="http://www.w3.org/1999/xlink" x="0px" y="0px" width="168.873px" height="37.603px" viewBox="0 0 168.873 37.603" enable-background="new 0 0 168.873 37.603" xml:space="preserve">
<g>
	<path fill="#010101" d="M36.873,35.135c0,1.1-0.9,2-2,2H2.54c-1.1,0-2-0.9-2-2V2.802c0-1.1,0.9-2,2-2h32.333c1.1,0,2,0.9,2,2   V35.135z"/>
</g>
<text transform="matrix(1 0 0 1 4.8632 25.7638)" fill="#FFFFFF" font-family="'MyriadPro-Bold'" font-size="24.6495">Sp</text>
<g>
	<path d="M44.001,10.024c1.088-0.223,2.646-0.347,4.131-0.347c2.3,0,3.784,0.421,4.823,1.36c0.841,0.742,1.311,1.88,1.311,3.166   c0,2.202-1.385,3.661-3.142,4.254v0.074c1.287,0.445,2.054,1.633,2.449,3.364c0.544,2.325,0.939,3.933,1.286,4.576h-2.227   c-0.271-0.47-0.643-1.904-1.112-3.982c-0.495-2.3-1.386-3.166-3.34-3.24h-2.028v7.223h-2.151V10.024z M46.153,17.617h2.202   c2.3,0,3.76-1.261,3.76-3.166c0-2.152-1.559-3.092-3.834-3.117c-1.039,0-1.781,0.099-2.128,0.198V17.617z"/>
	<path d="M68.165,20.387c0,4.428-3.067,6.357-5.961,6.357c-3.24,0-5.739-2.375-5.739-6.159c0-4.007,2.622-6.357,5.937-6.357   C65.84,14.229,68.165,16.727,68.165,20.387z M58.667,20.511c0,2.622,1.509,4.601,3.636,4.601c2.077,0,3.636-1.954,3.636-4.65   c0-2.028-1.014-4.601-3.586-4.601C59.78,15.861,58.667,18.236,58.667,20.511z"/>
	<path d="M73.062,19.992h0.049c0.297-0.42,0.718-0.94,1.063-1.36l3.513-4.131h2.622l-4.626,4.923l5.269,7.049h-2.646l-4.131-5.738   l-1.112,1.236v4.502H70.91V8.911h2.152V19.992z"/>
	<path d="M82.211,24.246c0.644,0.421,1.781,0.866,2.869,0.866c1.583,0,2.325-0.792,2.325-1.781c0-1.038-0.618-1.607-2.227-2.201   c-2.151-0.767-3.166-1.954-3.166-3.389c0-1.929,1.559-3.512,4.131-3.512c1.212,0,2.275,0.346,2.943,0.742l-0.544,1.583   c-0.47-0.297-1.336-0.693-2.448-0.693c-1.287,0-2.004,0.742-2.004,1.633c0,0.989,0.717,1.435,2.275,2.028   c2.078,0.791,3.142,1.83,3.142,3.611c0,2.103-1.633,3.586-4.478,3.586c-1.311,0-2.522-0.321-3.363-0.816L82.211,24.246z"/>
	<path d="M92.302,18.409c0-1.534-0.05-2.77-0.099-3.908h1.954l0.099,2.053h0.05c0.89-1.459,2.3-2.325,4.254-2.325   c2.894,0,5.07,2.449,5.07,6.084c0,4.304-2.622,6.432-5.441,6.432c-1.583,0-2.968-0.693-3.686-1.88h-0.049v6.505h-2.152V18.409z    M94.455,21.599c0,0.322,0.049,0.619,0.099,0.891c0.396,1.509,1.706,2.548,3.265,2.548c2.301,0,3.636-1.88,3.636-4.625   c0-2.399-1.261-4.453-3.562-4.453c-1.484,0-2.869,1.063-3.29,2.696c-0.074,0.272-0.147,0.593-0.147,0.89V21.599z"/>
	<path d="M106.373,18.236c0-1.41-0.024-2.622-0.099-3.735h1.904l0.074,2.35h0.099c0.544-1.608,1.855-2.622,3.314-2.622   c0.247,0,0.421,0.025,0.618,0.074v2.053c-0.223-0.05-0.445-0.074-0.741-0.074c-1.534,0-2.622,1.162-2.919,2.795   c-0.05,0.297-0.1,0.644-0.1,1.015v6.381h-2.151V18.236z"/>
	<path d="M125.047,20.387c0,4.428-3.067,6.357-5.961,6.357c-3.24,0-5.739-2.375-5.739-6.159c0-4.007,2.622-6.357,5.937-6.357   C122.722,14.229,125.047,16.727,125.047,20.387z M115.549,20.511c0,2.622,1.509,4.601,3.636,4.601c2.077,0,3.636-1.954,3.636-4.65   c0-2.028-1.014-4.601-3.586-4.601C116.662,15.861,115.549,18.236,115.549,20.511z"/>
	<path d="M136.325,26.027c-0.568,0.297-1.83,0.692-3.438,0.692c-3.611,0-5.962-2.448-5.962-6.109c0-3.685,2.523-6.356,6.432-6.356   c1.286,0,2.424,0.321,3.018,0.618l-0.495,1.682c-0.52-0.297-1.335-0.569-2.522-0.569c-2.746,0-4.229,2.028-4.229,4.526   c0,2.771,1.78,4.477,4.155,4.477c1.236,0,2.053-0.321,2.671-0.594L136.325,26.027z"/>
	<path d="M141.023,19.992h0.05c0.297-0.42,0.718-0.94,1.063-1.36l3.513-4.131h2.622l-4.626,4.923l5.269,7.049h-2.646l-4.131-5.738   l-1.113,1.236v4.502h-2.151V8.911h2.151V19.992z"/>
	<path d="M151.682,20.883c0.05,2.943,1.93,4.155,4.106,4.155c1.558,0,2.498-0.272,3.313-0.618l0.371,1.558   c-0.767,0.347-2.077,0.742-3.981,0.742c-3.686,0-5.888-2.424-5.888-6.035c0-3.611,2.128-6.456,5.615-6.456   c3.908,0,4.947,3.438,4.947,5.64c0,0.444-0.05,0.791-0.074,1.014H151.682z M158.064,19.324c0.024-1.385-0.569-3.537-3.018-3.537   c-2.202,0-3.166,2.028-3.34,3.537H158.064z"/>
	<path d="M165.483,11.063v3.438h3.116v1.657h-3.116v6.456c0,1.484,0.42,2.325,1.632,2.325c0.569,0,0.99-0.074,1.262-0.148   l0.099,1.632c-0.42,0.174-1.088,0.297-1.929,0.297c-1.015,0-1.83-0.321-2.35-0.915c-0.619-0.643-0.841-1.706-0.841-3.116v-6.53   H161.5v-1.657h1.855v-2.869L165.483,11.063z"/>
</g>
</svg>