<?xml version="1.0" encoding="UTF-8"?>
<!-- Generator: Adobe Illustrator 17.0.0, SVG Export Plug-In . SVG Version: 6.00 Build 0)  -->
<!DOCTYPE svg PUBLIC "-//W3C//DTD SVG 1.1//EN" "http://www.w3.org/Graphics/SVG/1.1/DTD/svg11.dtd">
<svg version="1.1" id="Layer_1" xmlns="http://www.w3.org/2000/svg" xmlns:xlink="http://www.w3.org/1999/xlink" x="0px" y="0px" width="160.956px" height="37.603px" viewBox="0 0 160.956 37.603" enable-background="new 0 0 160.956 37.603" xml:space="preserve">
<polygon fill="#231F20" points="5.221,6.977 18.125,6.972 20.707,2.5 0,2.5 0,35.064 5.323,35.064 7.866,30.593 5.244,30.593 "/>
<polygon fill="#231F20" points="32.883,2.518 30.301,6.99 32.962,6.99 32.962,30.61 20.626,30.61 18.044,35.082 38.206,35.082   38.206,2.518 "/>
<polygon fill="#231F20" points="25.931,2.5 7.116,35.088 12.306,35.088 31.121,2.5 "/>
<g>
	<path fill="#231F20" d="M46.523,30.184c0.302,0,0.57-0.051,0.808-0.152s0.438-0.244,0.603-0.427   c0.164-0.183,0.289-0.401,0.375-0.655c0.087-0.254,0.13-0.533,0.13-0.838v-4.425h0.98v4.425c0,0.42-0.067,0.81-0.201,1.168   c-0.134,0.359-0.324,0.67-0.573,0.933c-0.249,0.262-0.553,0.468-0.912,0.617c-0.358,0.148-0.762,0.223-1.209,0.223   s-0.85-0.074-1.209-0.223c-0.358-0.149-0.663-0.355-0.914-0.617c-0.251-0.263-0.442-0.573-0.576-0.933   c-0.134-0.358-0.201-0.748-0.201-1.168v-4.425h0.98v4.42c0,0.305,0.043,0.584,0.13,0.838c0.086,0.254,0.211,0.473,0.376,0.655   c0.164,0.183,0.365,0.326,0.604,0.429C45.952,30.133,46.222,30.184,46.523,30.184z"/>
	<path fill="#231F20" d="M53.923,30.138h3.149v0.828h-4.135v-7.279h0.985V30.138z"/>
	<path fill="#231F20" d="M64.073,23.687v0.828H61.72v6.451h-0.985v-6.451h-2.361v-0.828H64.073z"/>
	<path fill="#231F20" d="M68.105,30.967H67.12v-7.279h0.985V30.967z"/>
	<path fill="#231F20" d="M75.589,28.592c0.036,0.09,0.07,0.181,0.104,0.272c0.034-0.095,0.069-0.186,0.106-0.272   c0.037-0.086,0.08-0.173,0.127-0.261l2.464-4.476c0.044-0.078,0.09-0.125,0.137-0.143c0.048-0.017,0.115-0.025,0.203-0.025h0.727   v7.279h-0.863v-5.349c0-0.071,0.002-0.147,0.005-0.229c0.004-0.081,0.009-0.164,0.016-0.249l-2.494,4.551   c-0.085,0.153-0.203,0.229-0.355,0.229h-0.143c-0.152,0-0.271-0.076-0.355-0.229l-2.55-4.566c0.01,0.089,0.018,0.175,0.022,0.26   c0.006,0.084,0.008,0.162,0.008,0.233v5.349h-0.863v-7.279h0.727c0.088,0,0.155,0.009,0.203,0.025   c0.047,0.018,0.093,0.064,0.137,0.143l2.515,4.48C75.512,28.417,75.554,28.503,75.589,28.592z"/>
	<path fill="#231F20" d="M89.047,30.967h-0.762c-0.088,0-0.159-0.022-0.213-0.066c-0.055-0.044-0.095-0.1-0.122-0.167l-0.681-1.758   h-3.267l-0.68,1.758c-0.024,0.061-0.064,0.115-0.122,0.162c-0.058,0.048-0.129,0.071-0.214,0.071h-0.762l2.91-7.279h1.001   L89.047,30.967z M84.278,28.264h2.718l-1.143-2.961c-0.075-0.184-0.147-0.412-0.219-0.687c-0.037,0.14-0.073,0.267-0.109,0.384   c-0.035,0.117-0.07,0.22-0.104,0.308L84.278,28.264z"/>
	<path fill="#231F20" d="M96.083,23.687v0.828h-2.353v6.451h-0.985v-6.451h-2.361v-0.828H96.083z"/>
	<path fill="#231F20" d="M103.433,23.687v0.803h-3.495v2.418h2.829v0.772h-2.829v2.483h3.495v0.803h-4.485v-7.279H103.433z"/>
	<path fill="#231F20" d="M113.206,28.452c0,0.406-0.051,0.771-0.15,1.093c-0.1,0.321-0.247,0.593-0.441,0.814   c-0.195,0.223-0.435,0.393-0.719,0.511c-0.285,0.119-0.611,0.178-0.98,0.178c-0.329,0-0.671-0.047-1.026-0.142   c0.007-0.099,0.016-0.196,0.025-0.292c0.01-0.097,0.021-0.192,0.03-0.287c0.007-0.058,0.028-0.104,0.063-0.14   c0.036-0.036,0.089-0.054,0.16-0.054c0.062,0,0.143,0.016,0.244,0.046s0.236,0.046,0.406,0.046c0.224,0,0.422-0.034,0.597-0.102   c0.175-0.068,0.321-0.173,0.442-0.315c0.12-0.143,0.211-0.324,0.273-0.546c0.063-0.222,0.095-0.485,0.095-0.79v-4.785h0.98V28.452z   "/>
	<path fill="#231F20" d="M123.567,27.33c0,0.545-0.086,1.046-0.259,1.501s-0.417,0.848-0.731,1.176   c-0.315,0.328-0.693,0.583-1.136,0.765c-0.441,0.181-0.93,0.271-1.465,0.271s-1.023-0.091-1.463-0.271   c-0.44-0.182-0.818-0.437-1.133-0.765c-0.315-0.328-0.559-0.721-0.731-1.176s-0.259-0.956-0.259-1.501s0.086-1.046,0.259-1.501   s0.416-0.849,0.731-1.179c0.314-0.33,0.692-0.587,1.133-0.77c0.439-0.183,0.928-0.274,1.463-0.274s1.023,0.092,1.465,0.274   c0.442,0.183,0.82,0.439,1.136,0.77c0.314,0.33,0.559,0.724,0.731,1.179S123.567,26.785,123.567,27.33z M122.556,27.33   c0-0.447-0.061-0.849-0.183-1.204s-0.295-0.656-0.519-0.901s-0.494-0.435-0.813-0.566s-0.674-0.198-1.066-0.198   c-0.39,0-0.744,0.066-1.062,0.198c-0.318,0.132-0.591,0.321-0.815,0.566c-0.226,0.245-0.399,0.546-0.521,0.901   c-0.122,0.355-0.184,0.757-0.184,1.204s0.062,0.848,0.184,1.201c0.121,0.354,0.295,0.653,0.521,0.899   c0.225,0.245,0.497,0.433,0.815,0.563c0.317,0.13,0.672,0.195,1.062,0.195c0.393,0,0.748-0.065,1.066-0.195   c0.318-0.131,0.589-0.318,0.813-0.563c0.224-0.246,0.396-0.546,0.519-0.899S122.556,27.777,122.556,27.33z"/>
	<path fill="#231F20" d="M133.502,27.33c0,0.545-0.086,1.046-0.259,1.501s-0.417,0.848-0.731,1.176   c-0.315,0.328-0.693,0.583-1.136,0.765c-0.441,0.181-0.93,0.271-1.465,0.271s-1.023-0.091-1.463-0.271   c-0.44-0.182-0.818-0.437-1.133-0.765c-0.315-0.328-0.559-0.721-0.731-1.176s-0.259-0.956-0.259-1.501s0.086-1.046,0.259-1.501   s0.416-0.849,0.731-1.179c0.314-0.33,0.692-0.587,1.133-0.77c0.439-0.183,0.928-0.274,1.463-0.274s1.023,0.092,1.465,0.274   c0.442,0.183,0.82,0.439,1.136,0.77c0.314,0.33,0.559,0.724,0.731,1.179S133.502,26.785,133.502,27.33z M132.492,27.33   c0-0.447-0.061-0.849-0.183-1.204s-0.295-0.656-0.519-0.901s-0.494-0.435-0.813-0.566s-0.674-0.198-1.066-0.198   c-0.39,0-0.744,0.066-1.062,0.198c-0.318,0.132-0.591,0.321-0.815,0.566c-0.226,0.245-0.399,0.546-0.521,0.901   c-0.122,0.355-0.184,0.757-0.184,1.204s0.062,0.848,0.184,1.201c0.121,0.354,0.295,0.653,0.521,0.899   c0.225,0.245,0.497,0.433,0.815,0.563c0.317,0.13,0.672,0.195,1.062,0.195c0.393,0,0.748-0.065,1.066-0.195   c0.318-0.131,0.589-0.318,0.813-0.563c0.224-0.246,0.396-0.546,0.519-0.899S132.492,27.777,132.492,27.33z"/>
	<path fill="#231F20" d="M140.382,28.592c0.036,0.09,0.07,0.181,0.104,0.272c0.034-0.095,0.069-0.186,0.106-0.272   c0.037-0.086,0.08-0.173,0.127-0.261l2.464-4.476c0.044-0.078,0.09-0.125,0.137-0.143c0.048-0.017,0.115-0.025,0.203-0.025h0.727   v7.279h-0.863v-5.349c0-0.071,0.002-0.147,0.005-0.229c0.004-0.081,0.009-0.164,0.016-0.249l-2.494,4.551   c-0.085,0.153-0.203,0.229-0.355,0.229h-0.143c-0.152,0-0.271-0.076-0.355-0.229l-2.55-4.566c0.01,0.089,0.018,0.175,0.022,0.26   c0.006,0.084,0.008,0.162,0.008,0.233v5.349h-0.863v-7.279h0.727c0.088,0,0.155,0.009,0.203,0.025   c0.047,0.018,0.093,0.064,0.137,0.143l2.515,4.48C140.305,28.417,140.347,28.503,140.382,28.592z"/>
	<path fill="#231F20" d="M148.837,30.138h3.149v0.828h-4.135v-7.279h0.985V30.138z"/>
	<path fill="#231F20" d="M160.89,30.967h-0.762c-0.088,0-0.159-0.022-0.213-0.066c-0.055-0.044-0.095-0.1-0.122-0.167l-0.681-1.758   h-3.267l-0.68,1.758c-0.024,0.061-0.064,0.115-0.122,0.162c-0.058,0.048-0.129,0.071-0.214,0.071h-0.762l2.91-7.279h1.001   L160.89,30.967z M156.121,28.264h2.718l-1.143-2.961c-0.075-0.184-0.147-0.412-0.219-0.687c-0.037,0.14-0.073,0.267-0.109,0.384   c-0.035,0.117-0.07,0.22-0.104,0.308L156.121,28.264z"/>
</g>
<g>
	<path fill="#231F20" d="M51.909,10.528c-0.098,0.156-0.2,0.273-0.308,0.352s-0.246,0.117-0.415,0.117   c-0.149,0-0.311-0.047-0.483-0.142c-0.172-0.094-0.367-0.2-0.585-0.317c-0.219-0.117-0.468-0.223-0.747-0.317   c-0.28-0.094-0.599-0.142-0.957-0.142c-0.618,0-1.078,0.132-1.381,0.395c-0.303,0.264-0.454,0.62-0.454,1.069   c0,0.286,0.091,0.524,0.273,0.712c0.182,0.189,0.421,0.352,0.717,0.488c0.297,0.137,0.635,0.262,1.016,0.376s0.77,0.241,1.167,0.38   c0.396,0.14,0.785,0.305,1.166,0.493c0.381,0.189,0.72,0.43,1.016,0.723c0.296,0.292,0.535,0.649,0.718,1.069   c0.182,0.42,0.273,0.926,0.273,1.518c0,0.657-0.114,1.272-0.342,1.845c-0.229,0.572-0.559,1.072-0.991,1.498   c-0.433,0.427-0.967,0.762-1.601,1.006c-0.635,0.244-1.355,0.366-2.163,0.366c-0.442,0-0.893-0.046-1.352-0.137   c-0.459-0.092-0.903-0.22-1.333-0.386s-0.833-0.363-1.21-0.591c-0.378-0.228-0.707-0.481-0.986-0.762l0.977-1.542   c0.071-0.117,0.172-0.211,0.303-0.283c0.13-0.071,0.27-0.107,0.419-0.107c0.195,0,0.393,0.062,0.591,0.186   c0.198,0.124,0.423,0.261,0.674,0.41c0.25,0.15,0.538,0.287,0.864,0.41c0.325,0.123,0.709,0.186,1.151,0.186   c0.599,0,1.064-0.132,1.396-0.396s0.498-0.682,0.498-1.254c0-0.332-0.092-0.602-0.273-0.811c-0.183-0.208-0.422-0.381-0.718-0.517   c-0.296-0.137-0.633-0.257-1.011-0.361c-0.377-0.104-0.765-0.22-1.161-0.347c-0.397-0.127-0.784-0.283-1.162-0.469   c-0.377-0.186-0.714-0.429-1.011-0.732c-0.296-0.303-0.535-0.68-0.717-1.132c-0.183-0.453-0.273-1.011-0.273-1.674   c0-0.534,0.107-1.055,0.322-1.562c0.215-0.508,0.53-0.96,0.946-1.357c0.417-0.397,0.928-0.714,1.533-0.952   c0.605-0.237,1.298-0.356,2.079-0.356c0.437,0,0.86,0.034,1.274,0.103c0.413,0.068,0.806,0.169,1.176,0.303   c0.371,0.133,0.718,0.293,1.04,0.479s0.61,0.396,0.864,0.629L51.909,10.528z"/>
	<path fill="#231F20" d="M66.982,21.862h-3.319v-6.014h-5.779v6.014h-3.319V7.638h3.319v5.945h5.779V7.638h3.319V21.862z"/>
	<path fill="#231F20" d="M83.364,14.745c0,1.028-0.178,1.985-0.532,2.87s-0.854,1.655-1.498,2.308   c-0.645,0.654-1.421,1.167-2.329,1.538c-0.907,0.371-1.915,0.557-3.021,0.557s-2.115-0.186-3.026-0.557s-1.69-0.884-2.338-1.538   c-0.647-0.653-1.148-1.423-1.503-2.308c-0.355-0.885-0.532-1.842-0.532-2.87s0.177-1.985,0.532-2.87   c0.354-0.885,0.855-1.653,1.503-2.304s1.427-1.162,2.338-1.533s1.92-0.557,3.026-0.557s2.114,0.188,3.021,0.562   c0.908,0.375,1.685,0.887,2.329,1.538c0.644,0.651,1.144,1.419,1.498,2.304C83.186,12.77,83.364,13.723,83.364,14.745z    M79.986,14.745c0-0.703-0.091-1.336-0.273-1.899c-0.182-0.563-0.444-1.04-0.786-1.43c-0.341-0.391-0.76-0.69-1.254-0.898   c-0.495-0.208-1.058-0.312-1.689-0.312c-0.638,0-1.205,0.104-1.703,0.312c-0.498,0.208-0.918,0.508-1.26,0.898   c-0.341,0.391-0.604,0.867-0.785,1.43c-0.183,0.563-0.273,1.196-0.273,1.899c0,0.709,0.091,1.346,0.273,1.908   c0.182,0.563,0.444,1.04,0.785,1.43c0.342,0.391,0.762,0.688,1.26,0.894s1.065,0.308,1.703,0.308c0.632,0,1.194-0.103,1.689-0.308   c0.494-0.205,0.913-0.503,1.254-0.894c0.342-0.39,0.604-0.867,0.786-1.43C79.895,16.091,79.986,15.455,79.986,14.745z"/>
	<path fill="#231F20" d="M88.245,16.6v5.262h-3.3V7.638h4.627c1.028,0,1.905,0.106,2.631,0.317s1.318,0.506,1.777,0.883   c0.459,0.378,0.792,0.824,1,1.338c0.209,0.514,0.313,1.074,0.313,1.679c0,0.462-0.062,0.898-0.186,1.308   c-0.123,0.41-0.308,0.789-0.552,1.137c-0.243,0.348-0.543,0.659-0.897,0.932c-0.355,0.273-0.764,0.498-1.226,0.674   c0.222,0.111,0.428,0.248,0.62,0.41c0.191,0.163,0.359,0.361,0.503,0.595l3.026,4.95h-2.987c-0.554,0-0.95-0.208-1.191-0.625   l-2.362-4.129c-0.104-0.182-0.227-0.313-0.366-0.391S89.337,16.6,89.083,16.6H88.245z M88.245,14.325h1.327   c0.449,0,0.831-0.057,1.147-0.171c0.315-0.114,0.574-0.271,0.775-0.474c0.202-0.202,0.349-0.438,0.439-0.708   c0.092-0.27,0.137-0.562,0.137-0.874c0-0.625-0.203-1.113-0.61-1.464c-0.406-0.351-1.036-0.527-1.889-0.527h-1.327V14.325z"/>
	<path fill="#231F20" d="M107.671,7.638v2.617h-4.002v11.607h-3.3V10.255h-4.003V7.638H107.671z"/>
	<path fill="#231F20" d="M118.01,18.181c0.077,0,0.155,0.015,0.233,0.044s0.153,0.08,0.225,0.151l1.309,1.376   c-0.573,0.749-1.29,1.313-2.152,1.694c-0.863,0.381-1.883,0.571-3.061,0.571c-1.081,0-2.049-0.185-2.904-0.552   c-0.856-0.368-1.582-0.875-2.178-1.523c-0.596-0.647-1.053-1.415-1.371-2.303c-0.319-0.889-0.479-1.854-0.479-2.895   c0-1.061,0.182-2.036,0.547-2.924c0.364-0.889,0.873-1.655,1.527-2.299s1.437-1.146,2.348-1.503s1.917-0.537,3.017-0.537   c0.534,0,1.037,0.047,1.509,0.142c0.472,0.095,0.913,0.225,1.323,0.391c0.409,0.166,0.787,0.365,1.132,0.596   s0.651,0.486,0.918,0.766l-1.113,1.494c-0.071,0.091-0.156,0.174-0.254,0.249s-0.234,0.112-0.41,0.112   c-0.117,0-0.228-0.026-0.331-0.078c-0.104-0.052-0.215-0.116-0.332-0.19s-0.246-0.156-0.386-0.244   c-0.141-0.088-0.307-0.169-0.498-0.244c-0.192-0.075-0.417-0.138-0.674-0.19c-0.257-0.052-0.558-0.078-0.903-0.078   c-0.599,0-1.146,0.105-1.64,0.317c-0.495,0.212-0.919,0.514-1.274,0.908c-0.354,0.394-0.631,0.871-0.829,1.43   c-0.199,0.56-0.298,1.188-0.298,1.884c0,0.729,0.099,1.376,0.298,1.942c0.198,0.566,0.469,1.043,0.81,1.43   c0.342,0.388,0.74,0.682,1.196,0.884c0.455,0.202,0.943,0.303,1.465,0.303c0.299,0,0.572-0.015,0.819-0.044s0.477-0.08,0.688-0.151   s0.413-0.165,0.605-0.278c0.191-0.114,0.386-0.255,0.581-0.425c0.078-0.065,0.162-0.119,0.254-0.161   C117.818,18.203,117.913,18.181,118.01,18.181z"/>
	<path fill="#231F20" d="M135.319,14.745c0,1.028-0.178,1.985-0.532,2.87s-0.854,1.655-1.498,2.308   c-0.645,0.654-1.421,1.167-2.329,1.538c-0.907,0.371-1.915,0.557-3.021,0.557s-2.115-0.186-3.026-0.557s-1.69-0.884-2.338-1.538   c-0.647-0.653-1.148-1.423-1.503-2.308c-0.355-0.885-0.532-1.842-0.532-2.87s0.177-1.985,0.532-2.87   c0.354-0.885,0.855-1.653,1.503-2.304s1.427-1.162,2.338-1.533s1.92-0.557,3.026-0.557s2.114,0.188,3.021,0.562   c0.908,0.375,1.685,0.887,2.329,1.538c0.644,0.651,1.144,1.419,1.498,2.304C135.141,12.77,135.319,13.723,135.319,14.745z    M131.941,14.745c0-0.703-0.091-1.336-0.273-1.899c-0.182-0.563-0.444-1.04-0.786-1.43c-0.341-0.391-0.76-0.69-1.254-0.898   c-0.495-0.208-1.058-0.312-1.689-0.312c-0.638,0-1.205,0.104-1.703,0.312c-0.498,0.208-0.918,0.508-1.26,0.898   c-0.341,0.391-0.604,0.867-0.785,1.43c-0.183,0.563-0.273,1.196-0.273,1.899c0,0.709,0.091,1.346,0.273,1.908   c0.182,0.563,0.444,1.04,0.785,1.43c0.342,0.391,0.762,0.688,1.26,0.894s1.065,0.308,1.703,0.308c0.632,0,1.194-0.103,1.689-0.308   c0.494-0.205,0.913-0.503,1.254-0.894c0.342-0.39,0.604-0.867,0.786-1.43C131.85,16.091,131.941,15.455,131.941,14.745z"/>
	<path fill="#231F20" d="M149.806,14.745c0,1.028-0.177,1.977-0.531,2.846c-0.355,0.869-0.854,1.621-1.499,2.254   c-0.645,0.635-1.42,1.13-2.328,1.484s-1.915,0.532-3.021,0.532h-5.525V7.638h5.525c1.106,0,2.113,0.179,3.021,0.537   s1.684,0.853,2.328,1.484s1.144,1.381,1.499,2.25C149.629,12.778,149.806,13.723,149.806,14.745z M146.429,14.745   c0-0.703-0.092-1.337-0.273-1.904c-0.183-0.566-0.444-1.046-0.786-1.44s-0.76-0.696-1.255-0.908   c-0.494-0.211-1.058-0.317-1.688-0.317h-2.206v9.147h2.206c0.631,0,1.194-0.106,1.688-0.317c0.495-0.211,0.913-0.514,1.255-0.908   c0.342-0.394,0.604-0.874,0.786-1.44C146.337,16.093,146.429,15.455,146.429,14.745z"/>
	<path fill="#231F20" d="M160.545,7.638v2.539h-5.838v3.319h4.471v2.441h-4.471v3.388h5.838v2.538h-9.157V7.638H160.545z"/>
</g>
</svg>