<?xml version="1.0" encoding="UTF-8"?>
<!-- Generator: Adobe Illustrator 17.0.0, SVG Export Plug-In . SVG Version: 6.00 Build 0)  -->
<!DOCTYPE svg PUBLIC "-//W3C//DTD SVG 1.1//EN" "http://www.w3.org/Graphics/SVG/1.1/DTD/svg11.dtd">
<svg version="1.1" id="Layer_1" xmlns="http://www.w3.org/2000/svg" xmlns:xlink="http://www.w3.org/1999/xlink" x="0px" y="0px" width="216.218px" height="54.833px" viewBox="0 0 216.218 54.833" enable-background="new 0 0 216.218 54.833" xml:space="preserve">
<path fill="#FFFFFF" d="M20.724,23.912V1h5.697v25.21c0,0,11.216-14.295,13.96-18.507c3.192,1.021,4.659,1.021,4.659,1.021  s-4.531,8.297-14.614,17.743c9.126-1.531,16.785-2.618,16.785-2.618s1.467,2.618-0.766,3.192  c-2.235,0.574-15.701,1.916-15.701,1.916s-0.957,10.339,0.192,14.87s3.574,6.765,6.574,6.765s8.745,0,8.745,0  s-0.957-4.403,1.084-4.785c2.042-0.382,4.403,3.893,4.467,6.765c-7.722,0-17.487,0-17.487,0s-5.681,0.127-7.53-8.234  c-1.056-7.913-0.766-13.467-0.766-13.467s-3.05-0.249-4.554,1.16c0.291,4.857,0.243,17.973-17.342,21.567  c0,0-0.729,0.243-0.801-0.632c-0.073-0.873,1.118-1.166,3.668-2.235s9.196-7.902,9.91-16.255c-1.618-0.842-9.067,2.397-13.989,4.437  c-2.235-1.716-3.044-3.563-1.652-4.177c1.394-0.616,15.221-4.988,15.964-5.474C16.936,28.42,5.149,15.176,3.787,14.268  c1.974-2.495,3.984-3.66,4.89-3.563C10.068,13.036,15.836,21.125,20.724,23.912z"/>
<g enable-background="new    ">
	<path fill="#FFFFFF" d="M66.707,11.936c3.139,0,4.709,0.594,4.709,1.785c0,0.324-0.08,0.586-0.242,0.789   c-0.162,0.204-0.468,0.429-0.919,0.68c-0.392,0.221-0.642,0.51-0.749,0.873c-0.105,0.36-0.157,1.089-0.157,2.187   c0,0.646,0.131,1.042,0.393,1.191c0.15,0.093,0.379,0.148,0.686,0.165c0.306,0.018,1.029,0.027,2.166,0.027   c1.036,0,1.68-0.051,1.932-0.151c0.252-0.102,0.376-0.354,0.376-0.762c0-1.218-0.06-2.068-0.181-2.55   c-0.122-0.48-0.358-0.807-0.709-0.982c-0.442-0.229-0.735-0.427-0.875-0.588c-0.143-0.162-0.213-0.377-0.213-0.643   c0-0.38,0.156-0.723,0.468-1.031c0.312-0.31,0.719-0.521,1.222-0.63c1.044-0.229,2.361-0.346,3.939-0.346   c1.851,0,3.217,0.154,4.1,0.464c0.881,0.31,1.32,0.792,1.32,1.448c0,0.554-0.312,0.971-0.936,1.248   c-0.392,0.165-0.649,0.326-0.77,0.477c-0.122,0.151-0.216,0.437-0.287,0.852c-0.041,0.229-0.091,1.255-0.152,3.073   s-0.09,3.265-0.09,4.335c0,1.875,0.074,3.066,0.227,3.573c0.08,0.278,0.171,0.462,0.271,0.553c0.102,0.092,0.417,0.278,0.951,0.553   c0.382,0.195,0.573,0.49,0.573,0.886c0,0.702-0.455,1.212-1.366,1.53c-0.91,0.318-2.388,0.476-4.431,0.476   c-1.791,0-3.114-0.161-3.97-0.483c-0.775-0.297-1.161-0.754-1.161-1.373c0-0.526,0.297-0.938,0.891-1.231   c0.292-0.149,0.491-0.297,0.597-0.442c0.105-0.146,0.208-0.418,0.311-0.816c0.181-0.775,0.271-1.727,0.271-2.853   c0-0.583-0.093-0.942-0.279-1.082c-0.188-0.138-0.672-0.207-1.457-0.207c-1.801,0-2.949,0.092-3.442,0.277   c-0.201,0.073-0.327,0.292-0.376,0.651c-0.06,0.443-0.091,0.988-0.091,1.634c0,1.053,0.162,1.809,0.483,2.271   c0.11,0.149,0.372,0.338,0.783,0.569c0.423,0.22,0.636,0.587,0.636,1.094c0,0.645-0.488,1.14-1.464,1.483   c-0.977,0.339-2.37,0.51-4.18,0.51c-1.652,0-3-0.156-4.047-0.469c-0.451-0.138-0.807-0.336-1.063-0.588   c-0.258-0.252-0.384-0.532-0.384-0.835c0-0.304,0.08-0.54,0.241-0.705c0.16-0.165,0.513-0.379,1.056-0.637   c0.282-0.129,0.481-0.294,0.597-0.5c0.117-0.202,0.204-0.545,0.265-1.024c0.15-1.082,0.227-2.493,0.227-4.238   c0-0.321-0.006-0.705-0.015-1.151c-0.041-2.215-0.06-3.481-0.06-3.795c0.009-0.794-0.063-1.317-0.219-1.574   c-0.156-0.253-0.565-0.532-1.23-0.839c-0.442-0.195-0.665-0.486-0.665-0.873c0-0.932,0.987-1.58,2.959-1.94   C64.323,12.041,65.498,11.936,66.707,11.936z"/>
	<path fill="#FFFFFF" d="M93.366,18.305v8.048c0,0.637,0.063,1.103,0.189,1.398c0.126,0.297,0.379,0.569,0.762,0.816   c0.312,0.202,0.521,0.376,0.625,0.519c0.105,0.144,0.16,0.325,0.16,0.547c0,1.193-1.646,1.785-4.937,1.785   c-1.771,0-3.175-0.129-4.212-0.385c-0.353-0.092-0.637-0.254-0.854-0.486c-0.216-0.229-0.325-0.493-0.325-0.792   c0-0.248,0.054-0.442,0.165-0.58c0.11-0.138,0.392-0.36,0.844-0.665c0.312-0.213,0.534-0.559,0.665-1.04   c0.131-0.48,0.197-1.196,0.197-2.146c0-0.304-0.024-0.875-0.067-1.71c-0.045-0.835-0.078-1.323-0.097-1.463   c-0.06-0.38-0.34-0.67-0.844-0.873c-0.624-0.249-0.936-0.618-0.936-1.107c0-0.583,0.408-1.016,1.222-1.302   c1.128-0.398,2.335-0.734,3.624-1.011c1.289-0.278,2.285-0.416,2.99-0.416C93.09,17.447,93.366,17.734,93.366,18.305z    M90.378,12.239c0.875,0,1.57,0.15,2.083,0.45c0.514,0.3,0.77,0.703,0.77,1.212c0,0.711-0.389,1.275-1.161,1.69   c-1.229,0.656-2.713,0.983-4.454,0.983c-0.733,0-1.317-0.129-1.75-0.389c-0.585-0.331-0.875-0.794-0.875-1.385   c0-0.795,0.619-1.417,1.857-1.87C88.103,12.472,89.282,12.239,90.378,12.239z"/>
	<path fill="#FFFFFF" d="M104.735,12.917l-0.137,4.335c-0.009,0.432-0.015,1.073-0.015,1.91c0,0.932,0.015,1.482,0.045,1.648   c0.07,0.38,0.282,0.568,0.636,0.568c0.301,0,0.764-0.18,1.388-0.534s0.938-0.62,0.938-0.795c0-0.102-0.111-0.286-0.331-0.554   c-0.162-0.193-0.242-0.378-0.242-0.554c0-0.997,1.34-1.497,4.017-1.497c1.388,0,2.485,0.129,3.289,0.388   c0.324,0.102,0.591,0.278,0.801,0.526c0.21,0.249,0.316,0.516,0.316,0.802c0,0.416-0.216,0.705-0.649,0.873   c-0.09,0.037-0.382,0.097-0.874,0.18c-0.442,0.073-1.016,0.326-1.719,0.755c-0.703,0.429-1.056,0.741-1.056,0.936   c0,0.13,0.424,0.736,1.275,1.821c0.851,1.086,1.641,2.03,2.376,2.832c0.474,0.526,0.845,0.897,1.111,1.107   c0.267,0.213,0.638,0.438,1.108,0.679c0.725,0.36,1.088,0.772,1.088,1.231c0,0.488-0.228,0.873-0.688,1.147   c-0.458,0.278-1.083,0.417-1.877,0.417h-4.893c-0.613-0.009-1.092-0.219-1.433-0.624l-2.507-2.949   c-0.664-0.775-1.069-1.238-1.216-1.386c-0.147-0.148-0.269-0.22-0.371-0.22c-0.121,0-0.202,0.083-0.242,0.249   c-0.041,0.165-0.06,0.481-0.06,0.942c0,0.416,0.051,0.717,0.15,0.906c0.102,0.189,0.331,0.417,0.694,0.686   c0.261,0.193,0.393,0.48,0.393,0.859c0,0.646-0.372,1.111-1.118,1.398c-0.744,0.287-1.973,0.429-3.684,0.429   c-2.012,0-3.321-0.079-3.924-0.235c-0.343-0.092-0.636-0.281-0.875-0.561c-0.241-0.282-0.363-0.579-0.363-0.892   c0-0.351,0.213-0.656,0.633-0.913c0.363-0.213,0.594-0.374,0.696-0.486c0.102-0.111,0.182-0.286,0.242-0.526   c0.229-1.293,0.34-3.287,0.332-5.982V18.8c0-1.034-0.059-1.693-0.174-1.98c-0.116-0.286-0.399-0.458-0.852-0.513   c-0.826-0.102-1.237-0.416-1.237-0.942c0-0.351,0.181-0.666,0.542-0.95c0.363-0.282,0.957-0.561,1.782-0.839   c2.637-0.897,4.59-1.343,5.857-1.343C104.477,12.239,104.754,12.466,104.735,12.917z"/>
	<path fill="#FFFFFF" d="M127.454,17.336c1.752,0,3.235,0.408,4.454,1.219c0.644,0.432,1.093,0.93,1.353,1.487   c0.258,0.559,0.384,1.328,0.384,2.305l-0.028,2.064c0,1.431,0.109,2.361,0.332,2.785c0.111,0.203,0.216,0.332,0.316,0.389   c0.102,0.054,0.312,0.105,0.636,0.151c0.321,0.047,0.483,0.24,0.483,0.583c0,0.443-0.193,0.905-0.581,1.385   c-0.386,0.481-0.89,0.884-1.501,1.206c-0.755,0.405-1.544,0.608-2.369,0.608c-1.059,0-1.893-0.333-2.506-0.998   c-0.213-0.24-0.408-0.36-0.588-0.36c-0.201,0-0.468,0.117-0.799,0.35c-1.008,0.672-2.149,1.01-3.429,1.01   c-1.317,0-2.383-0.26-3.201-0.776c-0.534-0.34-0.956-0.787-1.268-1.337c-0.312-0.549-0.468-1.125-0.468-1.725   c0-0.962,0.421-1.809,1.268-2.547c1.317-1.164,3.292-1.75,5.917-1.76c0.584,0,0.953-0.052,1.103-0.161   c0.151-0.106,0.227-0.353,0.227-0.741c0-0.978-0.111-1.688-0.331-2.127c-0.222-0.438-0.585-0.659-1.088-0.659   c-0.301,0-0.573,0.084-0.807,0.249c-0.238,0.165-0.533,0.471-0.885,0.914c-0.894,1.173-1.83,1.76-2.807,1.76   c-0.494,0-0.894-0.135-1.206-0.402c-0.312-0.269-0.468-0.618-0.468-1.053c0-0.443,0.193-0.886,0.58-1.329   c0.386-0.443,0.912-0.831,1.577-1.164C123.569,17.779,125.471,17.336,127.454,17.336z M126.441,25.355   c-0.442,0-0.828,0.165-1.157,0.5c-0.327,0.332-0.489,0.729-0.489,1.191c0,0.442,0.116,0.801,0.347,1.074   c0.229,0.273,0.538,0.408,0.919,0.408c0.806,0,1.209-0.623,1.209-1.869c0-0.507-0.06-0.85-0.175-1.024   C126.984,25.457,126.765,25.366,126.441,25.355z"/>
	<path fill="#FFFFFF" d="M145.508,11.852c1.036,0,2.396,0.235,4.076,0.705c0.201,0.054,0.363,0.084,0.483,0.084   c0.102,0,0.403-0.084,0.906-0.249c0.162-0.054,0.333-0.083,0.515-0.083c0.672,0,1.386,0.489,2.136,1.467   c0.748,0.978,1.125,1.909,1.125,2.797c0,0.519-0.17,0.953-0.507,1.31c-0.338,0.357-0.749,0.532-1.23,0.532   c-0.402,0-0.729-0.073-0.981-0.222c-0.252-0.148-0.806-0.585-1.661-1.315c-1.209-1.034-2.397-1.551-3.563-1.551   c-0.564,0-1.016,0.125-1.353,0.373c-0.335,0.249-0.506,0.578-0.506,0.984c0,0.802,0.77,1.407,2.31,1.815   c2.083,0.564,3.417,0.975,4.002,1.231c2.565,1.144,3.849,2.831,3.849,5.054c0,1.967-0.874,3.574-2.628,4.819   c-1.792,1.275-4.132,1.91-7.019,1.91c-1.288,0-2.647-0.141-4.076-0.423c-1.428-0.282-2.462-0.611-3.095-0.989   c-0.483-0.297-0.918-0.939-1.307-1.932c-0.386-0.991-0.581-1.96-0.581-2.902c0-0.452,0.102-0.793,0.301-1.025   c0.252-0.297,0.568-0.443,0.952-0.443c0.382,0,0.749,0.18,1.1,0.54c0.213,0.204,0.711,0.854,1.496,1.953   c0.372,0.516,0.963,0.948,1.773,1.288s1.648,0.51,2.514,0.51c0.747,0,1.349-0.126,1.811-0.38c0.463-0.253,0.694-0.58,0.694-0.977   c0-0.37-0.182-0.688-0.542-0.955c-0.363-0.269-0.952-0.516-1.766-0.749c-1.44-0.416-2.536-0.797-3.292-1.141   c-0.755-0.347-1.46-0.783-2.113-1.308c-1.593-1.293-2.385-2.761-2.385-4.406c0-0.812,0.207-1.604,0.619-2.375   c0.413-0.773,0.998-1.438,1.752-2.003C141.009,12.503,143.073,11.852,145.508,11.852z"/>
	<path fill="#FFFFFF" d="M164.697,12.917l-0.197,5.802c-0.02,0.692,0.213,1.039,0.695,1.039c0.242,0,0.48-0.151,0.71-0.458   c0.977-1.302,2.278-1.953,3.91-1.953c1.602,0,2.873,0.448,3.822,1.342c0.423,0.398,0.721,0.87,0.897,1.413   c0.176,0.545,0.273,1.326,0.294,2.342l0.137,5c0.007,0.432,0.072,0.753,0.188,0.955c0.116,0.203,0.384,0.458,0.807,0.762   c0.291,0.213,0.436,0.467,0.436,0.76c0,0.998-1.641,1.496-4.92,1.496c-2.917,0-4.38-0.467-4.38-1.398   c0-0.157,0.025-0.278,0.076-0.36c0.048-0.083,0.227-0.304,0.528-0.665c0.423-0.507,0.636-1.777,0.636-3.808   c0-1.229-0.126-2.122-0.378-2.687c-0.331-0.766-0.925-1.151-1.782-1.151c-0.613,0-1.066,0.203-1.359,0.607   c-0.213,0.297-0.316,0.851-0.316,1.662v2.675c0.07,1.181,0.13,1.851,0.182,2.007c0.048,0.157,0.282,0.448,0.695,0.873   c0.19,0.193,0.286,0.418,0.286,0.678c0,1.042-1.478,1.563-4.436,1.563c-3.464,0-5.193-0.538-5.193-1.62   c0-0.249,0.053-0.441,0.164-0.574c0.111-0.133,0.382-0.339,0.816-0.616c0.382-0.249,0.646-0.92,0.794-2.016   c0.146-1.095,0.219-2.906,0.219-5.436c0-1.984-0.06-3.36-0.18-4.126c-0.041-0.286-0.112-0.495-0.221-0.63   c-0.105-0.135-0.305-0.272-0.597-0.408c-0.624-0.297-0.936-0.638-0.936-1.024c0-0.462,0.235-0.836,0.709-1.12   c0.471-0.286,1.379-0.597,2.716-0.929c1.811-0.462,3.255-0.692,4.333-0.692C164.435,12.226,164.717,12.455,164.697,12.917z"/>
	<path fill="#FFFFFF" d="M186.633,17.336c1.842,0,3.456,0.438,4.845,1.316c0.997,0.627,1.797,1.444,2.401,2.453   c0.624,1.053,0.936,2.152,0.936,3.296c0,2.004-1.002,3.708-3.003,5.11c-1.913,1.337-4.101,2.007-6.567,2.007   c-2.404,0-4.354-0.627-5.844-1.885c-1.451-1.218-2.175-2.807-2.175-4.764c0-2.179,0.887-3.96,2.657-5.346   C181.734,18.065,183.986,17.336,186.633,17.336z M185.423,20.537c-0.442,0-0.796,0.15-1.063,0.45s-0.399,0.699-0.399,1.198   c0,0.554,0.113,1.308,0.339,2.265c0.227,0.955,0.495,1.803,0.807,2.541c0.312,0.757,0.82,1.137,1.525,1.137   c0.894,0,1.342-0.521,1.342-1.564c0-0.775-0.112-1.657-0.339-2.644c-0.227-0.989-0.503-1.791-0.822-2.411   C186.48,20.878,186.017,20.555,185.423,20.537z"/>
	<path fill="#FFFFFF" d="M203.3,17.419c0.617,0,0.997,0.048,1.148,0.146c0.151,0.097,0.227,0.339,0.227,0.727   c0,0.34,0.121,0.513,0.363,0.513c0.102,0,0.438-0.175,1.01-0.526c0.432-0.267,0.984-0.49,1.653-0.672   c0.669-0.18,1.275-0.271,1.821-0.271c1.276,0,2.421,0.408,3.426,1.219c0.764,0.618,1.359,1.398,1.782,2.342   c0.443,0.989,0.664,2.026,0.664,3.117c0,2.328-0.855,4.244-2.566,5.746c-1.317,1.173-2.818,1.76-4.498,1.76   c-0.854,0-1.734-0.184-2.641-0.555c-0.182-0.072-0.327-0.109-0.438-0.109c-0.305,0-0.451,0.274-0.451,0.831   c0,0.729,0.267,1.254,0.8,1.579c0.493,0.304,0.787,0.509,0.885,0.616c0.093,0.106,0.143,0.285,0.143,0.534   c0,0.553-0.338,0.981-1.014,1.281c-0.672,0.302-1.623,0.45-2.852,0.45c-2.186,0-4.097-0.402-5.738-1.205   c-0.836-0.405-1.251-0.91-1.251-1.51c0-0.274,0.063-0.488,0.188-0.63c0.126-0.142,0.37-0.292,0.733-0.448   c0.525-0.222,0.845-0.624,0.959-1.205c0.115-0.583,0.202-2.253,0.263-5.013c-0.07-2.271-0.16-3.546-0.271-3.822   c-0.04-0.092-0.098-0.151-0.174-0.18c-0.076-0.027-0.326-0.078-0.748-0.151c-0.321-0.054-0.584-0.19-0.783-0.408   c-0.202-0.216-0.305-0.48-0.305-0.783c0-0.37,0.141-0.694,0.423-0.976s0.738-0.558,1.374-0.825   C199.89,17.96,201.852,17.438,203.3,17.419z M204.795,22.655l-0.227,3.808c-0.009,0.157-0.015,0.311-0.015,0.458   c0,0.286,0.135,0.516,0.408,0.694c0.271,0.176,0.632,0.262,1.086,0.262c1.392,0,2.085-1.048,2.085-3.144   c0-1.359-0.293-2.313-0.874-2.866c-0.363-0.34-0.797-0.51-1.298-0.51C205.241,21.353,204.855,21.787,204.795,22.655z"/>
</g>
<g>
	<path fill="#FFFFFF" d="M66.477,43.151h-4.45c-0.004,0.07-0.006,0.125-0.006,0.16c0,0.438,0.125,0.789,0.375,1.057   c0.249,0.269,0.553,0.402,0.912,0.402c0.59,0,1.049-0.304,1.378-0.913l1.59,0.265c-0.309,0.639-0.721,1.118-1.24,1.437   c-0.518,0.321-1.096,0.48-1.74,0.48c-0.882,0-1.599-0.28-2.151-0.839c-0.553-0.559-0.828-1.297-0.828-2.217   c0-0.9,0.249-1.7,0.749-2.4c0.679-0.948,1.652-1.422,2.911-1.422c0.804,0,1.441,0.249,1.916,0.745   c0.474,0.497,0.711,1.192,0.711,2.087C66.6,42.424,66.56,42.809,66.477,43.151z M64.982,42.07c0.003-0.079,0.006-0.138,0.006-0.18   c0-0.485-0.11-0.851-0.327-1.094c-0.219-0.243-0.511-0.364-0.877-0.364c-0.366,0-0.696,0.139-0.986,0.414   c-0.291,0.278-0.488,0.684-0.591,1.224C62.207,42.07,64.982,42.07,64.982,42.07z"/>
	<path fill="#FFFFFF" d="M68.985,41.761h3.444l-0.358,1.713h-3.444L68.985,41.761z"/>
	<path fill="#FFFFFF" d="M78.833,43.411l1.725,0.279c-0.284,0.766-0.705,1.348-1.262,1.749c-0.556,0.401-1.201,0.6-1.935,0.6   c-0.837,0-1.5-0.25-1.99-0.749c-0.491-0.5-0.737-1.185-0.737-2.059c0-0.713,0.148-1.386,0.446-2.022   c0.297-0.635,0.744-1.134,1.342-1.499s1.252-0.548,1.967-0.548c0.775,0,1.394,0.203,1.854,0.606   c0.462,0.405,0.721,0.936,0.78,1.595l-1.688,0.178c-0.042-0.366-0.154-0.637-0.337-0.81c-0.185-0.173-0.424-0.259-0.72-0.259   c-0.342,0-0.662,0.127-0.958,0.384c-0.297,0.255-0.525,0.638-0.684,1.147s-0.239,0.986-0.239,1.431   c0,0.387,0.095,0.686,0.284,0.897c0.189,0.21,0.427,0.315,0.711,0.315c0.283,0,0.56-0.102,0.822-0.309   C78.476,44.131,78.684,43.823,78.833,43.411z"/>
	<path fill="#FFFFFF" d="M83.202,43.157c0-1.217,0.344-2.186,1.029-2.909c0.686-0.723,1.589-1.086,2.705-1.086   c0.969,0,1.725,0.267,2.27,0.801c0.544,0.532,0.816,1.251,0.816,2.156c0,1.063-0.341,1.981-1.02,2.757   c-0.681,0.776-1.592,1.162-2.733,1.162c-0.619,0-1.167-0.125-1.646-0.372c-0.479-0.247-0.834-0.597-1.07-1.05   C83.321,44.162,83.202,43.676,83.202,43.157z M88.26,41.89c0-0.42-0.123-0.757-0.369-1.011s-0.561-0.38-0.948-0.38   c-0.384,0-0.723,0.118-1.02,0.355c-0.297,0.236-0.528,0.58-0.693,1.032c-0.165,0.451-0.248,0.867-0.248,1.246   c0,0.469,0.127,0.843,0.382,1.119c0.255,0.276,0.577,0.414,0.965,0.414c0.486,0,0.894-0.21,1.224-0.625   C88.025,43.453,88.26,42.734,88.26,41.89z"/>
	<path fill="#FFFFFF" d="M93.513,39.319h1.669l-0.167,0.796c0.651-0.635,1.333-0.952,2.05-0.952c0.495,0,0.876,0.104,1.146,0.309   c0.267,0.207,0.437,0.49,0.513,0.854c0.225-0.33,0.55-0.606,0.975-0.83c0.425-0.224,0.867-0.334,1.325-0.334   c0.522,0,0.932,0.141,1.224,0.42c0.293,0.282,0.437,0.653,0.437,1.113c0,0.226-0.056,0.618-0.172,1.174l-0.841,4.013h-1.773   l0.841-4.013c0.102-0.502,0.153-0.787,0.153-0.854c0-0.18-0.053-0.324-0.161-0.429c-0.111-0.105-0.276-0.158-0.492-0.158   c-0.442,0-0.835,0.233-1.181,0.699c-0.252,0.334-0.466,0.925-0.645,1.776l-0.624,2.979h-1.776l0.83-3.969   c0.096-0.458,0.144-0.755,0.144-0.889c0-0.174-0.059-0.317-0.175-0.428c-0.116-0.111-0.282-0.167-0.486-0.167   c-0.194,0-0.393,0.058-0.6,0.174c-0.206,0.114-0.387,0.275-0.539,0.475c-0.156,0.201-0.29,0.462-0.399,0.778   c-0.05,0.15-0.132,0.485-0.243,1.008l-0.63,3.018h-1.774L93.513,39.319z"/>
	<path fill="#FFFFFF" d="M106.29,39.319h1.669l-0.166,0.796c0.651-0.635,1.335-0.952,2.052-0.952c0.495,0,0.876,0.104,1.145,0.309   c0.269,0.207,0.438,0.49,0.513,0.854c0.227-0.33,0.552-0.606,0.977-0.83c0.425-0.224,0.866-0.334,1.323-0.334   c0.523,0,0.932,0.141,1.224,0.42c0.292,0.282,0.438,0.653,0.438,1.113c0,0.226-0.057,0.618-0.172,1.174l-0.841,4.013h-1.774   l0.841-4.013c0.102-0.502,0.154-0.787,0.154-0.854c0-0.18-0.054-0.324-0.162-0.429c-0.109-0.105-0.274-0.158-0.492-0.158   c-0.441,0-0.836,0.233-1.181,0.699c-0.252,0.334-0.466,0.925-0.644,1.776l-0.624,2.979h-1.776l0.83-3.969   c0.095-0.458,0.143-0.755,0.143-0.889c0-0.174-0.059-0.317-0.175-0.428c-0.117-0.111-0.28-0.167-0.486-0.167   c-0.193,0-0.393,0.058-0.599,0.174c-0.207,0.114-0.387,0.275-0.54,0.475c-0.156,0.201-0.288,0.462-0.399,0.778   c-0.049,0.15-0.13,0.485-0.242,1.008l-0.632,3.018h-1.775L106.29,39.319z"/>
	<path fill="#FFFFFF" d="M124.143,43.151h-4.452c-0.003,0.07-0.006,0.125-0.006,0.16c0,0.438,0.124,0.789,0.373,1.057   c0.251,0.269,0.554,0.402,0.912,0.402c0.59,0,1.049-0.304,1.379-0.913l1.59,0.265c-0.309,0.639-0.722,1.118-1.239,1.437   c-0.518,0.321-1.097,0.48-1.74,0.48c-0.883,0-1.599-0.28-2.152-0.839c-0.552-0.559-0.829-1.297-0.829-2.217   c0-0.9,0.249-1.7,0.748-2.4c0.68-0.948,1.651-1.422,2.912-1.422c0.804,0,1.443,0.249,1.915,0.745   c0.474,0.497,0.713,1.192,0.713,2.087C124.268,42.424,124.226,42.809,124.143,43.151z M122.648,42.07   c0.004-0.079,0.006-0.138,0.006-0.18c0-0.485-0.109-0.851-0.329-1.094c-0.219-0.243-0.512-0.364-0.877-0.364   c-0.366,0-0.696,0.139-0.985,0.414c-0.291,0.278-0.487,0.684-0.591,1.224C119.871,42.07,122.648,42.07,122.648,42.07z"/>
	<path fill="#FFFFFF" d="M127.587,39.319h1.656l-0.267,1.274c0.618-0.953,1.287-1.428,2.01-1.428c0.255,0,0.529,0.064,0.822,0.192   l-0.68,1.453c-0.161-0.057-0.333-0.087-0.513-0.087c-0.306,0-0.615,0.116-0.932,0.345c-0.315,0.231-0.561,0.538-0.738,0.924   c-0.177,0.385-0.353,0.996-0.526,1.834l-0.432,2.058h-1.774L127.587,39.319z"/>
	<path fill="#FFFFFF" d="M137.211,43.411l1.724,0.279c-0.284,0.766-0.705,1.348-1.262,1.749c-0.555,0.401-1.202,0.6-1.935,0.6   c-0.837,0-1.5-0.25-1.991-0.749c-0.489-0.5-0.735-1.185-0.735-2.059c0-0.713,0.148-1.386,0.445-2.022   c0.297-0.635,0.744-1.134,1.342-1.499c0.598-0.365,1.252-0.548,1.966-0.548c0.775,0,1.394,0.203,1.854,0.606   s0.722,0.936,0.78,1.595l-1.688,0.178c-0.04-0.366-0.154-0.637-0.337-0.81s-0.423-0.259-0.72-0.259   c-0.343,0-0.661,0.127-0.958,0.384c-0.297,0.255-0.525,0.638-0.683,1.147c-0.159,0.509-0.238,0.986-0.238,1.431   c0,0.387,0.095,0.686,0.284,0.897c0.19,0.21,0.426,0.315,0.713,0.315c0.284,0,0.558-0.102,0.822-0.309   C136.858,44.13,137.064,43.823,137.211,43.411z"/>
	<path fill="#FFFFFF" d="M147.714,43.151h-4.452c-0.003,0.07-0.006,0.125-0.006,0.16c0,0.438,0.125,0.789,0.374,1.057   c0.25,0.269,0.554,0.402,0.912,0.402c0.589,0,1.048-0.304,1.378-0.913l1.59,0.265c-0.309,0.639-0.722,1.118-1.239,1.437   c-0.518,0.321-1.097,0.48-1.74,0.48c-0.883,0-1.599-0.28-2.152-0.839c-0.552-0.559-0.83-1.297-0.83-2.217   c0-0.9,0.249-1.7,0.749-2.4c0.68-0.948,1.651-1.422,2.911-1.422c0.804,0,1.443,0.249,1.916,0.745   c0.474,0.497,0.712,1.192,0.712,2.087C147.839,42.424,147.797,42.809,147.714,43.151z M146.219,42.07   c0.004-0.079,0.006-0.138,0.006-0.18c0-0.485-0.109-0.851-0.329-1.094c-0.219-0.243-0.512-0.364-0.877-0.364   c-0.366,0-0.696,0.139-0.985,0.414c-0.291,0.278-0.487,0.684-0.591,1.224C143.442,42.07,146.219,42.07,146.219,42.07z"/>
	<path fill="#FFFFFF" d="M154.692,44.047l1.719-0.271c0.153,0.361,0.343,0.619,0.57,0.77c0.225,0.152,0.534,0.225,0.927,0.225   c0.403,0,0.726-0.091,0.969-0.271c0.17-0.125,0.254-0.276,0.254-0.453c0-0.118-0.042-0.225-0.129-0.321   c-0.091-0.091-0.338-0.202-0.736-0.334c-1.071-0.354-1.734-0.634-1.991-0.841c-0.4-0.321-0.599-0.741-0.599-1.262   c0-0.519,0.193-0.967,0.582-1.342c0.539-0.524,1.342-0.785,2.406-0.785c0.845,0,1.483,0.156,1.915,0.465   c0.432,0.309,0.707,0.726,0.822,1.255l-1.638,0.284c-0.087-0.239-0.227-0.418-0.42-0.539c-0.264-0.159-0.582-0.24-0.952-0.24   c-0.371,0-0.639,0.062-0.801,0.184c-0.162,0.125-0.243,0.267-0.243,0.428c0,0.163,0.082,0.3,0.246,0.406   c0.104,0.066,0.435,0.181,0.996,0.347c0.866,0.25,1.444,0.498,1.737,0.741c0.411,0.343,0.618,0.755,0.618,1.236   c0,0.623-0.263,1.162-0.785,1.62s-1.262,0.687-2.214,0.687c-0.948,0-1.68-0.174-2.197-0.524   C155.228,45.167,154.878,44.678,154.692,44.047z"/>
	<path fill="#FFFFFF" d="M163.74,43.157c0-1.217,0.343-2.186,1.03-2.909s1.589-1.086,2.706-1.086c0.969,0,1.723,0.267,2.27,0.801   c0.543,0.532,0.816,1.251,0.816,2.156c0,1.063-0.34,1.981-1.021,2.757c-0.68,0.776-1.591,1.162-2.731,1.162   c-0.618,0-1.167-0.125-1.646-0.372s-0.835-0.597-1.069-1.05C163.859,44.162,163.74,43.676,163.74,43.157z M168.798,41.89   c0-0.42-0.123-0.757-0.368-1.011c-0.246-0.254-0.563-0.38-0.949-0.38c-0.384,0-0.723,0.118-1.021,0.355   c-0.296,0.236-0.528,0.58-0.691,1.032c-0.165,0.451-0.248,0.867-0.248,1.246c0,0.469,0.128,0.843,0.384,1.119   c0.255,0.276,0.576,0.414,0.964,0.414c0.486,0,0.896-0.21,1.224-0.625C168.563,43.453,168.798,42.734,168.798,41.89z"/>
	<path fill="#FFFFFF" d="M172.724,45.884l1.898-9.063h1.768l-1.891,9.063H172.724z"/>
	<path fill="#FFFFFF" d="M179.133,39.319h1.774l-0.81,3.888c-0.098,0.467-0.148,0.757-0.148,0.873c0,0.189,0.07,0.351,0.21,0.488   c0.141,0.136,0.32,0.204,0.537,0.204c0.156,0,0.312-0.03,0.465-0.09s0.309-0.152,0.47-0.273c0.159-0.121,0.305-0.261,0.432-0.417   c0.127-0.156,0.247-0.361,0.358-0.618c0.078-0.189,0.162-0.498,0.253-0.927l0.656-3.128h1.776l-1.373,6.566h-1.657l0.184-0.891   c-0.725,0.698-1.515,1.046-2.367,1.046c-0.54,0-0.966-0.156-1.275-0.465c-0.309-0.309-0.464-0.723-0.464-1.242   c0-0.226,0.07-0.678,0.21-1.354L179.133,39.319z"/>
	<path fill="#FFFFFF" d="M187.472,40.636l0.273-1.317h0.865l0.216-1.052l2.034-1.223l-0.475,2.276h1.081l-0.271,1.317h-1.089   l-0.576,2.751c-0.102,0.498-0.154,0.783-0.154,0.852c0,0.136,0.042,0.243,0.13,0.319c0.087,0.077,0.243,0.114,0.469,0.114   c0.08,0,0.275-0.015,0.588-0.043l-0.279,1.317c-0.305,0.062-0.618,0.094-0.939,0.094c-0.627,0-1.083-0.121-1.367-0.361   c-0.284-0.241-0.426-0.577-0.426-1.005c0-0.203,0.076-0.667,0.228-1.398l0.55-2.64h-0.859   C187.472,40.637,187.472,40.636,187.472,40.636z"/>
	<path fill="#FFFFFF" d="M194.135,39.319h1.774l-1.372,6.566h-1.775L194.135,39.319z M194.654,36.821h1.775l-0.335,1.606h-1.774   L194.654,36.821z"/>
	<path fill="#FFFFFF" d="M198.059,43.157c0-1.217,0.344-2.186,1.03-2.909c0.687-0.723,1.589-1.086,2.706-1.086   c0.969,0,1.723,0.267,2.27,0.801c0.543,0.532,0.816,1.251,0.816,2.156c0,1.063-0.341,1.981-1.021,2.757s-1.592,1.162-2.732,1.162   c-0.618,0-1.167-0.125-1.645-0.372s-0.836-0.597-1.07-1.05C198.177,44.162,198.059,43.676,198.059,43.157z M203.117,41.89   c0-0.42-0.123-0.757-0.367-1.011c-0.246-0.254-0.563-0.38-0.949-0.38c-0.384,0-0.723,0.118-1.021,0.355   c-0.296,0.236-0.528,0.58-0.691,1.032c-0.165,0.451-0.247,0.867-0.247,1.246c0,0.469,0.128,0.843,0.384,1.119   c0.255,0.276,0.576,0.414,0.965,0.414c0.486,0,0.896-0.21,1.224-0.625C202.881,43.453,203.117,42.734,203.117,41.89z"/>
	<path fill="#FFFFFF" d="M208.451,39.319h1.682l-0.173,0.852c0.42-0.361,0.813-0.621,1.178-0.777   c0.364-0.155,0.748-0.231,1.153-0.231c0.54,0,0.966,0.156,1.278,0.465c0.311,0.309,0.467,0.718,0.467,1.23   c0,0.229-0.068,0.666-0.204,1.309l-0.774,3.717h-1.775l0.78-3.728c0.115-0.557,0.173-0.888,0.173-0.996   c0-0.225-0.067-0.405-0.201-0.534c-0.135-0.129-0.321-0.195-0.559-0.195c-0.26,0-0.548,0.11-0.865,0.329   c-0.318,0.219-0.567,0.507-0.748,0.865c-0.132,0.255-0.281,0.777-0.445,1.564l-0.563,2.696h-1.775L208.451,39.319z"/>
</g>
</svg>