<?xml version="1.0" encoding="UTF-8"?>
<!-- Generator: Adobe Illustrator 17.0.0, SVG Export Plug-In . SVG Version: 6.00 Build 0)  -->
<!DOCTYPE svg PUBLIC "-//W3C//DTD SVG 1.1//EN" "http://www.w3.org/Graphics/SVG/1.1/DTD/svg11.dtd">
<svg version="1.1" id="Layer_1" xmlns="http://www.w3.org/2000/svg" xmlns:xlink="http://www.w3.org/1999/xlink" x="0px" y="0px" width="134.167px" height="48.357px" viewBox="0 0 134.167 48.357" enable-background="new 0 0 134.167 48.357" xml:space="preserve">
<g>
	<g enable-background="new    ">
		<path fill="#FFFFFF" d="M66.322,0.13h6.177v23.076h0.213c1.277-1.846,2.558-3.551,3.764-5.112L91.1,0.13h7.67L81.445,20.436    l18.673,27.549h-7.313L77.042,24.483l-4.545,5.254v18.247H66.32L66.322,0.13L66.322,0.13z"/>
		<path fill="#FFFFFF" d="M102.599,47.985v-3.834l4.899-4.758c11.786-11.218,17.112-17.182,17.183-24.139    c0-4.687-2.272-9.018-9.159-9.018c-4.188,0-7.668,2.13-9.798,3.906l-1.987-4.403c3.195-2.699,7.738-4.686,13.065-4.686    c9.94,0,14.13,6.818,14.13,13.42c0,8.52-6.177,15.406-15.904,24.778l-3.693,3.408V42.8h20.733v5.184    C132.067,47.985,102.599,47.985,102.599,47.985z"/>
	</g>
</g>
<path fill="#FFFFFF" d="M0.62,0v48.357h57.148V0H0.62L0.62,0z M6.137,43.27l15.169-23.703l4.137,6.642l7.242-14.313l19.396,31.377  L6.137,43.27L6.137,43.27z"/>
</svg>