<?xml version="1.0" encoding="utf-8"?>
<!-- Generator: Adobe Illustrator 17.0.0, SVG Export Plug-In . SVG Version: 6.00 Build 0)  -->
<!DOCTYPE svg PUBLIC "-//W3C//DTD SVG 1.1//EN" "http://www.w3.org/Graphics/SVG/1.1/DTD/svg11.dtd">
<svg version="1.1" id="Layer_1" xmlns="http://www.w3.org/2000/svg" xmlns:xlink="http://www.w3.org/1999/xlink" x="0px" y="0px"
	 width="320px" height="150px" viewBox="0 0 320 150" enable-background="new 0 0 320 150" xml:space="preserve">
<g>
	<path fill="#231F20" d="M66.469,121.084c0,1.986-0.331,3.825-0.993,5.517c-0.662,1.692-1.592,3.157-2.791,4.394
		s-2.641,2.201-4.327,2.894c-1.686,0.693-3.553,1.04-5.601,1.04c-2.048,0-3.918-0.347-5.61-1.04
		c-1.692-0.692-3.141-1.657-4.346-2.894s-2.139-2.701-2.8-4.394c-0.662-1.691-0.993-3.53-0.993-5.517
		c0-1.985,0.331-3.824,0.993-5.517c0.662-1.692,1.595-3.156,2.8-4.393s2.654-2.201,4.346-2.895c1.692-0.692,3.562-1.039,5.61-1.039
		c2.048,0,3.915,0.35,5.601,1.049s3.128,1.664,4.327,2.895c1.199,1.229,2.129,2.69,2.791,4.383S66.469,119.099,66.469,121.084z
		 M61.299,121.084c0-1.485-0.197-2.819-0.59-3.999c-0.393-1.181-0.958-2.183-1.695-3.007c-0.737-0.824-1.633-1.454-2.688-1.892
		s-2.245-0.656-3.568-0.656c-1.324,0-2.517,0.219-3.578,0.656s-1.964,1.067-2.707,1.892c-0.743,0.824-1.315,1.826-1.714,3.007
		c-0.4,1.18-0.599,2.514-0.599,3.999c0,1.486,0.199,2.819,0.599,4c0.399,1.18,0.971,2.179,1.714,2.997
		c0.743,0.818,1.645,1.445,2.707,1.883c1.062,0.437,2.254,0.655,3.578,0.655c1.323,0,2.513-0.219,3.568-0.655
		c1.055-0.438,1.951-1.064,2.688-1.883c0.736-0.818,1.302-1.817,1.695-2.997C61.103,123.903,61.299,122.57,61.299,121.084z"/>
	<path fill="#231F20" d="M75.648,125.093v9.535h-5.039v-27.087h8.823c1.811,0,3.378,0.212,4.702,0.637
		c1.323,0.425,2.417,1.018,3.278,1.779c0.862,0.762,1.499,1.674,1.911,2.735s0.618,2.223,0.618,3.484
		c0,1.311-0.218,2.513-0.655,3.605c-0.438,1.093-1.093,2.032-1.967,2.819s-1.967,1.398-3.278,1.836
		c-1.312,0.438-2.848,0.655-4.608,0.655H75.648z M75.648,121.159h3.784c0.924,0,1.729-0.115,2.417-0.347
		c0.687-0.23,1.255-0.562,1.705-0.992c0.45-0.432,0.787-0.956,1.012-1.574s0.337-1.308,0.337-2.069c0-0.725-0.112-1.38-0.337-1.968
		c-0.225-0.586-0.562-1.086-1.012-1.498s-1.018-0.728-1.705-0.946c-0.687-0.218-1.492-0.328-2.417-0.328h-3.784V121.159z"/>
	<path fill="#231F20" d="M110.94,107.541v4.009H98.933v7.512h9.46v3.877h-9.46v7.662h12.007v4.027H93.856v-27.087H110.94z"/>
	<path fill="#231F20" d="M118.508,107.568c0.15,0.02,0.284,0.057,0.403,0.112c0.119,0.057,0.234,0.138,0.347,0.244
		s0.237,0.246,0.375,0.421l14.218,18.115c-0.05-0.438-0.084-0.865-0.103-1.283c-0.019-0.419-0.028-0.809-0.028-1.171v-16.466h4.44
		v27.087h-2.604c-0.4,0-0.73-0.063-0.993-0.188s-0.519-0.35-0.768-0.674l-14.162-18.04c0.038,0.4,0.066,0.796,0.084,1.189
		s0.028,0.753,0.028,1.077v16.635h-4.44v-27.087h2.642C118.171,107.541,118.359,107.55,118.508,107.568z"/>
	<path fill="#231F20" d="M169.479,128.24c0.274,0,0.512,0.106,0.712,0.318l1.985,2.154c-1.1,1.361-2.451,2.404-4.056,3.128
		c-1.604,0.725-3.531,1.087-5.779,1.087c-2.011,0-3.818-0.344-5.423-1.03c-1.605-0.687-2.976-1.643-4.112-2.866
		c-1.137-1.224-2.007-2.685-2.613-4.384c-0.606-1.698-0.908-3.553-0.908-5.563c0-2.035,0.337-3.899,1.011-5.592
		c0.674-1.691,1.624-3.149,2.848-4.374c1.224-1.224,2.688-2.176,4.393-2.856s3.587-1.021,5.647-1.021
		c2.011,0,3.769,0.321,5.273,0.965c1.505,0.643,2.794,1.495,3.868,2.557l-1.686,2.342c-0.101,0.149-0.229,0.28-0.384,0.394
		c-0.156,0.112-0.372,0.168-0.646,0.168c-0.287,0-0.581-0.112-0.881-0.337s-0.681-0.469-1.143-0.73
		c-0.462-0.263-1.046-0.506-1.751-0.73c-0.706-0.226-1.602-0.338-2.688-0.338c-1.273,0-2.444,0.223-3.512,0.665
		c-1.068,0.443-1.986,1.077-2.754,1.901s-1.367,1.827-1.798,3.007c-0.431,1.181-0.646,2.508-0.646,3.98
		c0,1.524,0.215,2.879,0.646,4.065c0.431,1.187,1.015,2.186,1.751,2.997s1.605,1.433,2.604,1.864
		c0.999,0.431,2.073,0.646,3.222,0.646c0.688,0,1.309-0.037,1.864-0.112c0.556-0.074,1.067-0.193,1.536-0.355
		c0.468-0.162,0.911-0.372,1.33-0.628c0.418-0.256,0.833-0.571,1.245-0.945c0.125-0.113,0.256-0.203,0.394-0.272
		C169.167,128.274,169.316,128.24,169.479,128.24z"/>
	<path fill="#231F20" d="M181.187,124.044v10.584h-5.039v-27.087h8.262c1.848,0,3.431,0.19,4.748,0.571s2.398,0.915,3.241,1.602
		s1.461,1.508,1.854,2.463s0.59,2.008,0.59,3.156c0,0.912-0.135,1.773-0.402,2.586c-0.27,0.812-0.656,1.548-1.162,2.21
		s-1.13,1.243-1.873,1.742c-0.743,0.5-1.589,0.899-2.538,1.199c0.637,0.362,1.187,0.88,1.648,1.555l6.781,10.003h-4.533
		c-0.438,0-0.809-0.087-1.115-0.263c-0.306-0.174-0.564-0.424-0.777-0.749l-5.694-8.673c-0.213-0.325-0.446-0.556-0.702-0.693
		c-0.257-0.137-0.634-0.206-1.134-0.206H181.187z M181.187,120.429h3.147c0.949,0,1.776-0.118,2.481-0.356
		c0.706-0.236,1.286-0.564,1.742-0.983c0.456-0.418,0.797-0.914,1.021-1.489c0.225-0.574,0.337-1.205,0.337-1.892
		c0-1.374-0.453-2.429-1.358-3.166c-0.905-0.736-2.288-1.105-4.148-1.105h-3.223V120.429z"/>
	<path fill="#231F20" d="M224.327,134.628h-3.896c-0.438,0-0.796-0.109-1.077-0.328c-0.28-0.218-0.483-0.489-0.608-0.814
		l-2.023-5.526h-11.221l-2.023,5.526c-0.1,0.287-0.297,0.55-0.59,0.787s-0.652,0.355-1.077,0.355h-3.915l10.641-27.087h5.151
		L224.327,134.628z M206.794,124.4h8.636l-3.297-9.011c-0.15-0.399-0.316-0.871-0.497-1.414c-0.181-0.544-0.359-1.134-0.533-1.771
		c-0.176,0.637-0.347,1.23-0.516,1.779c-0.169,0.55-0.334,1.03-0.496,1.442L206.794,124.4z"/>
	<path fill="#231F20" d="M244.203,107.541v4.009h-12.008v8.018h10.135v4.027h-10.135v11.033h-5.076v-27.087H244.203z"/>
	<path fill="#231F20" d="M267.243,107.541v4.14h-8.148v22.947h-5.039v-22.947h-8.187v-4.14H267.243z"/>
</g>
<g>
	<polygon fill="#231F20" points="169.78,59.721 174.986,58.808 176.552,58.533 176.552,40.665 138.806,34.044 137.244,33.769 
		135.677,33.494 130.472,32.584 128.914,32.309 127.348,32.034 108.849,28.79 108.849,93.564 176.552,81.689 176.552,70.166 
		174.986,70.442 169.78,71.355 168.216,71.63 168.216,74.689 117.178,83.64 117.178,38.71 127.348,40.495 128.914,40.77 
		130.472,41.042 135.677,41.955 137.244,42.23 138.806,42.505 168.216,47.661 168.216,59.994 	"/>
	<polygon fill="#231F20" points="128.914,12.166 128.914,30.721 130.472,30.993 135.677,31.906 137.244,32.181 137.244,22.087 
		188.281,31.038 188.281,58.065 178.113,59.85 176.552,60.122 174.986,60.397 169.78,61.31 168.216,61.585 166.65,61.86 
		137.244,67.016 137.244,43.81 135.677,43.535 130.472,42.622 128.914,42.35 128.914,76.941 166.65,70.321 168.216,70.047 
		169.78,69.773 174.986,68.859 176.552,68.585 178.11,68.312 196.617,65.066 196.617,24.042 	"/>
</g>
</svg>
