<?xml version="1.0" encoding="UTF-8"?>
<!-- Generator: Adobe Illustrator 17.0.0, SVG Export Plug-In . SVG Version: 6.00 Build 0)  -->
<!DOCTYPE svg PUBLIC "-//W3C//DTD SVG 1.1//EN" "http://www.w3.org/Graphics/SVG/1.1/DTD/svg11.dtd">
<svg version="1.1" id="Layer_1" xmlns="http://www.w3.org/2000/svg" xmlns:xlink="http://www.w3.org/1999/xlink" x="0px" y="0px" width="253.662px" height="56.083px" viewBox="0 0 253.662 56.083" enable-background="new 0 0 253.662 56.083" xml:space="preserve">
<g>
	<path fill="#FFFFFF" d="M38.394,24.103c-1.59,0-2.994,1.182-3.365,2.845c-0.073,0.296-0.111,0.665-0.111,0.998v2.477   c0,0.444,0.036,0.849,0.111,1.182c0.37,1.516,1.663,2.661,3.29,2.661c2.439,0,3.88-2.032,3.88-5.1   C42.201,26.284,40.908,24.103,38.394,24.103z"/>
	<path fill="#FFFFFF" d="M52.095,0.744h-48.5c-1.65,0-3,1.35-3,3v48.5c0,1.65,1.35,3,3,3h48.5c1.65,0,3-1.35,3-3v-48.5   C55.095,2.094,53.745,0.744,52.095,0.744z M15.619,38.556c-2.846,0-5.655-0.738-7.061-1.515l1.146-4.657   c1.515,0.777,3.845,1.552,6.248,1.552c2.588,0,3.955-1.073,3.955-2.698c0-1.552-1.183-2.441-4.177-3.51   c-4.14-1.441-6.839-3.733-6.839-7.356c0-4.251,3.549-7.505,9.426-7.505c2.809,0,4.88,0.593,6.359,1.257l-1.257,4.547   c-0.997-0.48-2.772-1.182-5.212-1.182s-3.623,1.109-3.623,2.403c0,1.59,1.406,2.292,4.622,3.511   c4.399,1.627,6.469,3.918,6.469,7.429C25.674,35.007,22.458,38.556,15.619,38.556z M39.688,38.593c-2.181,0-3.88-0.888-4.693-2.072   h-0.073v8.982h-5.619v-19.33c0-2.365-0.073-4.4-0.149-6.063h4.88l0.258,2.514h0.073c1.33-1.922,3.401-2.919,6.026-2.919   c3.956,0,7.503,3.438,7.503,9.202C47.893,35.488,43.717,38.593,39.688,38.593z"/>
</g>
<g>
	<path fill="#FFFFFF" d="M65.787,14.577c1.632-0.334,3.969-0.521,6.197-0.521c3.45,0,5.676,0.631,7.235,2.04   c1.262,1.113,1.967,2.82,1.967,4.749c0,3.303-2.077,5.491-4.713,6.381v0.111c1.93,0.667,3.081,2.449,3.674,5.046   c0.816,3.488,1.409,5.899,1.929,6.864h-3.341c-0.406-0.705-0.965-2.856-1.668-5.973c-0.742-3.45-2.079-4.749-5.01-4.86h-3.042   v10.834h-3.227C65.787,39.249,65.787,14.577,65.787,14.577z M69.015,25.966h3.303c3.45,0,5.64-1.891,5.64-4.749   c0-3.228-2.338-4.638-5.751-4.676c-1.559,0-2.671,0.148-3.192,0.297V25.966z"/>
	<path fill="#FFFFFF" d="M102.033,30.121c0,6.642-4.601,9.535-8.941,9.535c-4.86,0-8.608-3.563-8.608-9.239   c0-6.01,3.933-9.535,8.906-9.535C98.545,20.884,102.033,24.631,102.033,30.121z M87.786,30.307c0,3.933,2.264,6.901,5.454,6.901   c3.116,0,5.454-2.931,5.454-6.975c0-3.042-1.521-6.902-5.379-6.902C89.455,23.332,87.786,26.895,87.786,30.307z"/>
	<path fill="#FFFFFF" d="M109.378,29.529h0.074c0.445-0.63,1.077-1.41,1.595-2.04l5.27-6.196h3.933l-6.939,7.384l7.903,10.574   h-3.969l-6.196-8.607l-1.668,1.854v6.753h-3.231V12.907h3.228L109.378,29.529L109.378,29.529z"/>
	<path fill="#FFFFFF" d="M123.102,35.91c0.966,0.631,2.672,1.299,4.304,1.299c2.375,0,3.487-1.188,3.487-2.671   c0-1.557-0.927-2.411-3.34-3.302c-3.227-1.151-4.749-2.931-4.749-5.083c0-2.893,2.338-5.268,6.196-5.268   c1.818,0,3.412,0.519,4.414,1.113l-0.816,2.375c-0.705-0.446-2.004-1.039-3.672-1.039c-1.931,0-3.006,1.113-3.006,2.449   c0,1.484,1.076,2.153,3.412,3.042c3.117,1.187,4.713,2.745,4.713,5.417c0,3.155-2.45,5.379-6.717,5.379   c-1.966,0-3.783-0.481-5.044-1.224L123.102,35.91z"/>
	<path fill="#FFFFFF" d="M138.238,27.154c0-2.301-0.075-4.155-0.148-5.862h2.931l0.148,3.08h0.075   c1.335-2.188,3.45-3.487,6.381-3.487c4.341,0,7.605,3.674,7.605,9.126c0,6.456-3.933,9.648-8.161,9.648   c-2.375,0-4.452-1.04-5.529-2.82h-0.074v9.757h-3.228L138.238,27.154L138.238,27.154z M141.468,31.939   c0,0.483,0.074,0.928,0.148,1.337c0.594,2.264,2.559,3.822,4.897,3.822c3.452,0,5.454-2.82,5.454-6.938   c0-3.598-1.892-6.679-5.343-6.679c-2.226,0-4.304,1.594-4.935,4.044c-0.111,0.408-0.221,0.89-0.221,1.335V31.939L141.468,31.939z"/>
	<path fill="#FFFFFF" d="M159.345,26.895c0-2.115-0.036-3.933-0.148-5.602h2.856l0.111,3.525h0.148   c0.816-2.412,2.783-3.933,4.971-3.933c0.37,0,0.631,0.037,0.927,0.111v3.08c-0.335-0.075-0.668-0.111-1.111-0.111   c-2.301,0-3.933,1.743-4.379,4.193c-0.075,0.446-0.15,0.966-0.15,1.522v9.571h-3.227L159.345,26.895L159.345,26.895z"/>
	<path fill="#FFFFFF" d="M187.356,30.121c0,6.642-4.601,9.535-8.941,9.535c-4.86,0-8.609-3.563-8.609-9.239   c0-6.01,3.933-9.535,8.906-9.535C183.868,20.884,187.356,24.631,187.356,30.121z M173.109,30.307c0,3.933,2.264,6.901,5.454,6.901   c3.116,0,5.454-2.931,5.454-6.975c0-3.042-1.521-6.902-5.379-6.902C174.778,23.332,173.109,26.895,173.109,30.307z"/>
	<path fill="#FFFFFF" d="M204.273,38.581c-0.852,0.445-2.745,1.038-5.157,1.038c-5.416,0-8.943-3.672-8.943-9.163   c0-5.527,3.785-9.534,9.648-9.534c1.929,0,3.636,0.482,4.527,0.927l-0.742,2.523c-0.78-0.446-2.003-0.854-3.783-0.854   c-4.119,0-6.344,3.042-6.344,6.789c0,4.156,2.67,6.716,6.232,6.716c1.854,0,3.079-0.481,4.007-0.891L204.273,38.581z"/>
	<path fill="#FFFFFF" d="M211.32,29.529h0.075c0.445-0.63,1.077-1.41,1.594-2.04l5.27-6.196h3.933l-6.939,7.384l7.903,10.574h-3.969   l-6.196-8.607l-1.67,1.854v6.753h-3.227V12.907h3.227L211.32,29.529L211.32,29.529z"/>
	<path fill="#FFFFFF" d="M227.308,30.865c0.075,4.415,2.895,6.233,6.159,6.233c2.337,0,3.747-0.408,4.97-0.927l0.557,2.337   c-1.15,0.521-3.115,1.113-5.972,1.113c-5.529,0-8.832-3.636-8.832-9.053s3.192-9.684,8.423-9.684c5.862,0,7.421,5.157,7.421,8.46   c0,0.666-0.075,1.187-0.111,1.521C239.922,30.865,227.308,30.865,227.308,30.865z M236.881,28.527   c0.036-2.078-0.854-5.306-4.527-5.306c-3.303,0-4.749,3.042-5.01,5.306H236.881z"/>
	<path fill="#FFFFFF" d="M248.01,16.135v5.157h4.674v2.485h-4.674v9.684c0,2.226,0.63,3.488,2.448,3.488   c0.854,0,1.485-0.111,1.893-0.222l0.148,2.448c-0.63,0.261-1.632,0.446-2.893,0.446c-1.523,0-2.745-0.481-3.525-1.373   c-0.929-0.965-1.262-2.559-1.262-4.674v-9.795h-2.784v-2.485h2.782v-4.303L248.01,16.135z"/>
</g>
</svg>