<?xml version="1.0" encoding="UTF-8"?>
<!-- Generator: Adobe Illustrator 17.0.0, SVG Export Plug-In . SVG Version: 6.00 Build 0)  -->
<!DOCTYPE svg PUBLIC "-//W3C//DTD SVG 1.1//EN" "http://www.w3.org/Graphics/SVG/1.1/DTD/svg11.dtd">
<svg version="1.1" id="Layer_1" xmlns="http://www.w3.org/2000/svg" xmlns:xlink="http://www.w3.org/1999/xlink" x="0px" y="0px" width="241.784px" height="48.819px" viewBox="0 0 241.784 48.819" enable-background="new 0 0 241.784 48.819" xml:space="preserve">
<polygon fill="#FFFFFF" points="8.303,6.716 27.659,6.708 31.532,0 0.472,0 0.472,48.846 8.456,48.846 12.27,42.14 8.338,42.14 "/>
<polygon fill="#FFFFFF" points="49.796,0.027 45.923,6.735 49.915,6.735 49.915,42.165 31.41,42.165 27.538,48.873 57.781,48.873   57.781,0.027 "/>
<polygon fill="#FFFFFF" points="39.368,0 11.145,48.882 18.93,48.882 47.153,0 "/>
<g>
	<path fill="#FFFFFF" d="M70.256,41.526c0.453,0,0.855-0.077,1.212-0.228c0.357-0.152,0.657-0.366,0.905-0.641   c0.246-0.274,0.434-0.601,0.563-0.982c0.131-0.381,0.195-0.799,0.195-1.257v-6.637h1.47v6.637c0,0.63-0.101,1.215-0.301,1.752   c-0.201,0.538-0.486,1.005-0.86,1.4c-0.374,0.393-0.83,0.702-1.368,0.925c-0.537,0.222-1.143,0.334-1.813,0.334   c-0.67,0-1.275-0.111-1.813-0.334c-0.537-0.223-0.994-0.532-1.371-0.925c-0.376-0.395-0.663-0.86-0.864-1.4   c-0.201-0.537-0.302-1.122-0.302-1.752v-6.637h1.47v6.63c0,0.458,0.064,0.876,0.195,1.257c0.129,0.381,0.316,0.709,0.564,0.983   c0.246,0.274,0.548,0.489,0.906,0.644C69.399,41.449,69.805,41.526,70.256,41.526z"/>
	<path fill="#FFFFFF" d="M81.356,41.457h4.723v1.242h-6.203V31.781h1.478v9.677L81.356,41.457L81.356,41.457z"/>
	<path fill="#FFFFFF" d="M96.581,31.781v1.242h-3.529v9.676h-1.478v-9.676h-3.542v-1.242C88.032,31.781,96.581,31.781,96.581,31.781   z"/>
	<path fill="#FFFFFF" d="M102.629,42.7h-1.478V31.782h1.478V42.7z"/>
	<path fill="#FFFFFF" d="M113.855,39.138c0.054,0.135,0.105,0.271,0.156,0.408c0.051-0.142,0.104-0.279,0.159-0.408   s0.12-0.259,0.19-0.391l3.696-6.714c0.066-0.117,0.135-0.188,0.206-0.215c0.072-0.025,0.172-0.037,0.305-0.037h1.09v10.918h-1.295   v-8.023c0-0.106,0.003-0.22,0.007-0.344c0.006-0.122,0.014-0.246,0.024-0.374l-3.741,6.826c-0.128,0.229-0.305,0.344-0.533,0.344   h-0.215c-0.228,0-0.407-0.114-0.533-0.344l-3.825-6.849c0.015,0.134,0.027,0.262,0.033,0.39c0.009,0.126,0.012,0.243,0.012,0.35   v8.023h-1.294V31.781h1.09c0.132,0,0.232,0.014,0.305,0.037c0.07,0.027,0.139,0.096,0.205,0.215l3.772,6.72   C113.74,38.876,113.803,39.005,113.855,39.138z"/>
	<path fill="#FFFFFF" d="M134.042,42.7h-1.143c-0.132,0-0.238-0.033-0.319-0.099c-0.083-0.066-0.143-0.15-0.183-0.25l-1.021-2.637   h-4.9l-1.02,2.637c-0.036,0.092-0.096,0.173-0.183,0.243c-0.087,0.072-0.193,0.106-0.321,0.106h-1.143l4.365-10.918h1.502   L134.042,42.7z M126.889,38.646h4.077l-1.714-4.442c-0.112-0.276-0.221-0.618-0.329-1.031c-0.055,0.21-0.109,0.401-0.163,0.576   c-0.053,0.176-0.105,0.33-0.156,0.462L126.889,38.646z"/>
	<path fill="#FFFFFF" d="M144.596,31.781v1.242h-3.529v9.676h-1.478v-9.676h-3.542v-1.242   C136.047,31.781,144.596,31.781,144.596,31.781z"/>
	<path fill="#FFFFFF" d="M155.621,31.781v1.204h-5.243v3.627h4.243v1.158h-4.243v3.724h5.243v1.205h-6.728V31.78   C148.893,31.781,155.621,31.781,155.621,31.781z"/>
	<path fill="#FFFFFF" d="M170.281,38.928c0,0.609-0.077,1.157-0.225,1.64c-0.15,0.481-0.37,0.889-0.661,1.221   c-0.292,0.334-0.652,0.59-1.079,0.766c-0.428,0.179-0.916,0.267-1.47,0.267c-0.493,0-1.007-0.071-1.539-0.213   c0.011-0.149,0.024-0.294,0.038-0.438c0.015-0.146,0.032-0.288,0.045-0.431c0.01-0.087,0.042-0.156,0.094-0.21   c0.054-0.054,0.133-0.081,0.24-0.081c0.093,0,0.215,0.024,0.366,0.069c0.152,0.045,0.354,0.069,0.609,0.069   c0.336,0,0.633-0.051,0.896-0.153s0.481-0.259,0.663-0.472c0.18-0.215,0.316-0.486,0.41-0.819c0.095-0.333,0.143-0.728,0.143-1.185   v-7.177h1.47L170.281,38.928L170.281,38.928z"/>
	<path fill="#FFFFFF" d="M185.822,37.245c0,0.818-0.129,1.569-0.389,2.251s-0.626,1.272-1.097,1.764   c-0.473,0.492-1.04,0.875-1.704,1.147c-0.661,0.271-1.395,0.407-2.197,0.407c-0.803,0-1.535-0.137-2.195-0.407   c-0.66-0.273-1.227-0.655-1.699-1.147c-0.473-0.492-0.839-1.082-1.097-1.764s-0.389-1.434-0.389-2.251   c0-0.817,0.129-1.569,0.389-2.251c0.26-0.682,0.624-1.274,1.097-1.769c0.471-0.495,1.038-0.88,1.699-1.155   c0.659-0.274,1.392-0.411,2.195-0.411c0.802,0,1.535,0.138,2.197,0.411c0.663,0.275,1.23,0.658,1.704,1.155   c0.471,0.495,0.839,1.086,1.097,1.769C185.691,35.676,185.822,36.428,185.822,37.245z M184.305,37.245   c0-0.67-0.091-1.274-0.274-1.806s-0.443-0.984-0.779-1.352c-0.336-0.368-0.741-0.653-1.219-0.849s-1.011-0.297-1.599-0.297   c-0.585,0-1.116,0.099-1.593,0.297s-0.887,0.481-1.223,0.849c-0.339,0.368-0.599,0.819-0.782,1.352   c-0.183,0.532-0.276,1.135-0.276,1.806s0.093,1.272,0.276,1.802c0.182,0.531,0.443,0.979,0.782,1.348   c0.337,0.368,0.745,0.65,1.223,0.844c0.475,0.195,1.008,0.292,1.593,0.292c0.59,0,1.122-0.097,1.599-0.292   c0.477-0.196,0.883-0.477,1.219-0.844c0.336-0.369,0.594-0.819,0.779-1.348C184.215,38.517,184.305,37.916,184.305,37.245z"/>
	<path fill="#FFFFFF" d="M200.725,37.245c0,0.818-0.129,1.569-0.389,2.251s-0.626,1.272-1.097,1.764   c-0.473,0.492-1.039,0.875-1.704,1.147c-0.661,0.271-1.395,0.407-2.197,0.407s-1.535-0.137-2.195-0.407   c-0.66-0.273-1.227-0.655-1.699-1.147c-0.473-0.492-0.839-1.082-1.097-1.764s-0.389-1.434-0.389-2.251   c0-0.817,0.129-1.569,0.389-2.251c0.26-0.682,0.624-1.274,1.097-1.769c0.471-0.495,1.038-0.88,1.699-1.155   c0.658-0.274,1.392-0.411,2.195-0.411s1.534,0.138,2.197,0.411c0.663,0.275,1.23,0.658,1.704,1.155   c0.471,0.495,0.839,1.086,1.097,1.769C200.594,35.676,200.725,36.428,200.725,37.245z M199.21,37.245   c0-0.67-0.092-1.274-0.274-1.806c-0.183-0.532-0.443-0.984-0.779-1.352c-0.336-0.368-0.741-0.653-1.219-0.849   s-1.011-0.297-1.599-0.297c-0.585,0-1.116,0.099-1.593,0.297s-0.887,0.481-1.223,0.849c-0.339,0.368-0.599,0.819-0.782,1.352   c-0.183,0.532-0.276,1.135-0.276,1.806s0.093,1.272,0.276,1.802c0.182,0.531,0.442,0.979,0.782,1.348   c0.338,0.368,0.745,0.65,1.223,0.844c0.475,0.195,1.008,0.292,1.593,0.292c0.59,0,1.122-0.097,1.599-0.292   c0.477-0.196,0.883-0.477,1.219-0.844c0.336-0.369,0.594-0.819,0.779-1.348C199.12,38.517,199.21,37.916,199.21,37.245z"/>
	<path fill="#FFFFFF" d="M211.045,39.138c0.054,0.135,0.105,0.271,0.156,0.408c0.051-0.142,0.104-0.279,0.159-0.408   c0.056-0.129,0.12-0.259,0.191-0.391l3.696-6.714c0.066-0.117,0.135-0.188,0.205-0.215c0.072-0.025,0.173-0.037,0.305-0.037h1.091   v10.918h-1.295v-8.023c0-0.106,0.003-0.22,0.008-0.344c0.006-0.122,0.014-0.246,0.024-0.374l-3.741,6.826   c-0.128,0.229-0.305,0.344-0.533,0.344h-0.215c-0.228,0-0.406-0.114-0.532-0.344l-3.825-6.849c0.015,0.134,0.027,0.262,0.033,0.39   c0.009,0.126,0.012,0.243,0.012,0.35v8.023h-1.295V31.781h1.091c0.132,0,0.232,0.014,0.305,0.037   c0.07,0.027,0.139,0.096,0.205,0.215l3.772,6.72C210.929,38.876,210.992,39.005,211.045,39.138z"/>
	<path fill="#FFFFFF" d="M223.727,41.457h4.724v1.242h-6.202V31.781h1.478V41.457L223.727,41.457z"/>
	<path fill="#FFFFFF" d="M241.807,42.7h-1.143c-0.132,0-0.238-0.033-0.32-0.099c-0.082-0.066-0.143-0.15-0.183-0.25l-1.021-2.637   h-4.9l-1.02,2.637c-0.036,0.092-0.096,0.173-0.183,0.243c-0.087,0.072-0.193,0.106-0.321,0.106h-1.143l4.365-10.918h1.502   L241.807,42.7z M234.653,38.646h4.077l-1.715-4.442c-0.113-0.276-0.221-0.618-0.328-1.031c-0.056,0.21-0.109,0.401-0.163,0.576   c-0.053,0.176-0.105,0.33-0.156,0.462L234.653,38.646z"/>
</g>
<g>
	<path fill="#FFFFFF" d="M78.335,12.042c-0.147,0.234-0.3,0.409-0.462,0.528s-0.369,0.175-0.622,0.175   c-0.223,0-0.467-0.07-0.725-0.213c-0.258-0.141-0.551-0.3-0.878-0.476c-0.328-0.175-0.702-0.334-1.12-0.476   c-0.42-0.141-0.898-0.213-1.436-0.213c-0.927,0-1.617,0.198-2.072,0.593c-0.455,0.396-0.681,0.93-0.681,1.604   c0,0.429,0.136,0.786,0.409,1.068c0.273,0.284,0.632,0.528,1.075,0.732c0.446,0.205,0.952,0.393,1.524,0.564   s1.155,0.362,1.751,0.57c0.594,0.21,1.177,0.458,1.749,0.74c0.571,0.283,1.08,0.645,1.524,1.084   c0.444,0.438,0.803,0.974,1.077,1.604c0.273,0.63,0.409,1.389,0.409,2.277c0,0.986-0.171,1.908-0.513,2.767   c-0.344,0.858-0.838,1.608-1.486,2.247c-0.649,0.641-1.451,1.143-2.402,1.509c-0.952,0.366-2.033,0.549-3.245,0.549   c-0.663,0-1.34-0.069-2.028-0.205c-0.688-0.138-1.354-0.33-2-0.579s-1.25-0.545-1.815-0.886c-0.567-0.342-1.061-0.722-1.479-1.143   l1.466-2.313c0.106-0.176,0.258-0.316,0.455-0.424c0.195-0.106,0.405-0.161,0.628-0.161c0.292,0,0.59,0.093,0.886,0.279   c0.297,0.186,0.635,0.392,1.011,0.615c0.375,0.225,0.807,0.431,1.296,0.615c0.488,0.184,1.063,0.279,1.727,0.279   c0.898,0,1.596-0.198,2.094-0.594s0.747-1.023,0.747-1.881c0-0.498-0.138-0.903-0.41-1.217c-0.274-0.312-0.633-0.572-1.077-0.776   c-0.444-0.205-0.95-0.385-1.517-0.542c-0.565-0.156-1.147-0.33-1.741-0.521c-0.595-0.19-1.176-0.424-1.743-0.703   c-0.565-0.279-1.071-0.643-1.517-1.098c-0.444-0.455-0.802-1.02-1.075-1.698c-0.274-0.679-0.409-1.516-0.409-2.511   c0-0.801,0.16-1.583,0.483-2.343c0.323-0.762,0.795-1.44,1.419-2.036c0.625-0.596,1.392-1.071,2.3-1.428   c0.908-0.356,1.947-0.534,3.119-0.534c0.656,0,1.29,0.051,1.911,0.155c0.619,0.102,1.209,0.254,1.764,0.454   c0.556,0.2,1.077,0.44,1.56,0.719s0.915,0.594,1.296,0.943L78.335,12.042z"/>
	<path fill="#FFFFFF" d="M100.945,29.043h-4.979v-9.021h-8.668v9.021h-4.979V7.707h4.979v8.917h8.668V7.707h4.979   C100.945,7.707,100.945,29.043,100.945,29.043z"/>
	<path fill="#FFFFFF" d="M125.518,18.367c0,1.542-0.267,2.977-0.798,4.305c-0.531,1.328-1.281,2.483-2.247,3.462   c-0.967,0.981-2.132,1.75-3.494,2.307c-1.36,0.557-2.873,0.835-4.532,0.835s-3.173-0.279-4.539-0.835   c-1.367-0.556-2.535-1.326-3.507-2.307c-0.971-0.979-1.722-2.135-2.254-3.462c-0.533-1.328-0.798-2.763-0.798-4.305   s0.266-2.977,0.798-4.305c0.531-1.328,1.283-2.479,2.254-3.456c0.972-0.977,2.141-1.743,3.507-2.299   c1.366-0.557,2.88-0.836,4.539-0.836s3.171,0.282,4.531,0.843c1.362,0.563,2.527,1.331,3.493,2.307   c0.966,0.977,1.716,2.128,2.247,3.456C125.249,15.405,125.518,16.834,125.518,18.367z M120.451,18.367   c0-1.055-0.137-2.004-0.41-2.849c-0.273-0.844-0.666-1.56-1.179-2.145c-0.512-0.586-1.14-1.035-1.881-1.347   c-0.743-0.312-1.587-0.468-2.534-0.468c-0.957,0-1.808,0.156-2.555,0.468s-1.377,0.762-1.89,1.347   c-0.512,0.586-0.906,1.3-1.178,2.145c-0.274,0.844-0.41,1.794-0.41,2.849c0,1.063,0.137,2.019,0.41,2.862   c0.273,0.845,0.666,1.56,1.178,2.145c0.513,0.587,1.143,1.032,1.89,1.341s1.598,0.462,2.555,0.462c0.948,0,1.791-0.155,2.534-0.462   c0.741-0.307,1.369-0.754,1.881-1.341c0.513-0.585,0.906-1.301,1.179-2.145C120.314,20.386,120.451,19.432,120.451,18.367z"/>
	<path fill="#FFFFFF" d="M132.839,21.15v7.893h-4.95V7.707h6.94c1.542,0,2.857,0.159,3.946,0.475   c1.089,0.317,1.977,0.759,2.666,1.325c0.688,0.567,1.188,1.236,1.5,2.007c0.313,0.771,0.469,1.611,0.469,2.519   c0,0.693-0.093,1.347-0.279,1.962c-0.185,0.615-0.462,1.183-0.828,1.706c-0.364,0.522-0.814,0.989-1.346,1.398   c-0.533,0.41-1.146,0.747-1.839,1.011c0.333,0.167,0.642,0.372,0.93,0.615c0.287,0.245,0.539,0.542,0.755,0.892l4.539,7.425h-4.48   c-0.831,0-1.425-0.312-1.786-0.938l-3.543-6.194c-0.156-0.273-0.34-0.469-0.549-0.587c-0.209-0.117-0.507-0.174-0.888-0.174   L132.839,21.15L132.839,21.15z M132.839,17.737h1.991c0.673,0,1.246-0.086,1.721-0.257c0.473-0.171,0.861-0.406,1.162-0.711   c0.303-0.303,0.523-0.657,0.659-1.062c0.138-0.405,0.206-0.843,0.206-1.311c0-0.938-0.305-1.669-0.915-2.196   c-0.609-0.526-1.554-0.791-2.834-0.791h-1.991L132.839,17.737L132.839,17.737z"/>
	<path fill="#FFFFFF" d="M161.978,7.707v3.925h-6.003v17.41h-4.95v-17.41h-6.005V7.707H161.978z"/>
	<path fill="#FFFFFF" d="M177.487,23.522c0.115,0,0.232,0.022,0.349,0.066s0.23,0.12,0.338,0.226l1.963,2.064   c-0.859,1.124-1.935,1.969-3.228,2.541c-1.294,0.572-2.824,0.856-4.591,0.856c-1.622,0-3.074-0.278-4.356-0.828   c-1.284-0.552-2.373-1.313-3.267-2.285c-0.894-0.97-1.579-2.123-2.057-3.455c-0.479-1.333-0.718-2.781-0.718-4.343   c0-1.591,0.273-3.054,0.82-4.386c0.546-1.333,1.309-2.482,2.29-3.448s2.155-1.719,3.522-2.255s2.876-0.806,4.525-0.806   c0.801,0,1.555,0.07,2.264,0.213c0.708,0.142,1.369,0.337,1.984,0.587c0.613,0.249,1.18,0.547,1.698,0.894S180,9.892,180.4,10.312   l-1.669,2.241c-0.107,0.136-0.234,0.261-0.381,0.373s-0.351,0.168-0.615,0.168c-0.175,0-0.342-0.039-0.497-0.117   c-0.156-0.078-0.322-0.174-0.498-0.285s-0.369-0.234-0.579-0.366c-0.212-0.132-0.46-0.253-0.747-0.366   c-0.288-0.112-0.626-0.207-1.011-0.285s-0.837-0.117-1.354-0.117c-0.898,0-1.719,0.157-2.46,0.476   c-0.743,0.318-1.378,0.771-1.911,1.362c-0.531,0.591-0.946,1.307-1.244,2.145c-0.298,0.84-0.447,1.782-0.447,2.826   c0,1.094,0.148,2.064,0.447,2.913c0.297,0.849,0.704,1.564,1.215,2.145c0.513,0.582,1.11,1.023,1.794,1.326   c0.682,0.303,1.415,0.454,2.197,0.454c0.449,0,0.858-0.022,1.229-0.066c0.37-0.044,0.715-0.12,1.032-0.226   c0.317-0.106,0.62-0.248,0.908-0.417c0.287-0.171,0.579-0.382,0.872-0.637c0.117-0.097,0.243-0.178,0.381-0.241   C177.199,23.554,177.341,23.522,177.487,23.522z"/>
	<path fill="#FFFFFF" d="M203.45,18.367c0,1.542-0.267,2.977-0.798,4.305s-1.281,2.483-2.247,3.462   c-0.967,0.981-2.132,1.75-3.493,2.307s-2.872,0.835-4.531,0.835c-1.659,0-3.173-0.279-4.539-0.835s-2.535-1.326-3.507-2.307   c-0.971-0.979-1.722-2.135-2.254-3.462c-0.533-1.328-0.798-2.763-0.798-4.305s0.266-2.977,0.798-4.305   c0.531-1.328,1.283-2.479,2.254-3.456c0.972-0.977,2.141-1.743,3.507-2.299c1.366-0.557,2.88-0.836,4.539-0.836   s3.171,0.282,4.531,0.843c1.362,0.563,2.527,1.331,3.493,2.307c0.966,0.977,1.716,2.128,2.247,3.456   C203.183,15.405,203.45,16.834,203.45,18.367z M198.383,18.367c0-1.055-0.137-2.004-0.41-2.849   c-0.273-0.844-0.666-1.56-1.179-2.145c-0.512-0.586-1.14-1.035-1.881-1.347c-0.742-0.312-1.587-0.468-2.534-0.468   c-0.957,0-1.807,0.156-2.555,0.468s-1.377,0.762-1.89,1.347c-0.512,0.586-0.906,1.3-1.178,2.145   c-0.275,0.844-0.41,1.794-0.41,2.849c0,1.063,0.137,2.019,0.41,2.862c0.273,0.845,0.666,1.56,1.178,2.145   c0.513,0.587,1.143,1.032,1.89,1.341s1.598,0.462,2.555,0.462c0.948,0,1.791-0.155,2.534-0.462   c0.741-0.307,1.369-0.754,1.881-1.341c0.513-0.585,0.906-1.301,1.179-2.145C198.247,20.386,198.383,19.432,198.383,18.367z"/>
	<path fill="#FFFFFF" d="M225.18,18.367c0,1.542-0.266,2.965-0.797,4.269c-0.532,1.303-1.281,2.431-2.248,3.381   c-0.967,0.953-2.13,1.695-3.492,2.226s-2.872,0.798-4.531,0.798h-8.287V7.707h8.287c1.659,0,3.17,0.268,4.531,0.806   c1.362,0.537,2.526,1.279,3.492,2.226s1.716,2.072,2.248,3.375S225.18,16.834,225.18,18.367z M220.115,18.367   c0-1.055-0.138-2.005-0.41-2.856c-0.274-0.849-0.666-1.569-1.179-2.16s-1.14-1.044-1.883-1.362   c-0.741-0.317-1.587-0.476-2.532-0.476h-3.309v13.72h3.309c0.947,0,1.791-0.159,2.532-0.476c0.742-0.316,1.369-0.771,1.883-1.362   c0.513-0.591,0.906-1.311,1.179-2.16C219.977,20.39,220.115,19.432,220.115,18.367z"/>
	<path fill="#FFFFFF" d="M241.289,7.707v3.808h-8.757v4.979h6.706v3.661h-6.706v5.082h8.757v3.807h-13.736V7.707H241.289z"/>
</g>
</svg>